<svg xmlns="http://www.w3.org/2000/svg" viewBox="0 0 1140.37 289.12"><defs><style>.cls-1{fill:#fff;}.cls-2{fill:none;stroke:#fff;stroke-miterlimit:10;stroke-width:7px;}</style></defs><g id="レイヤー_2" data-name="レイヤー 2"><g id="ロゴ白"><path class="cls-1" d="M402.49,242.15a229.08,229.08,0,0,1-37.4,2.86,169.38,169.38,0,0,1-18.26-.77c-16.17-1.76-24.09-9.9-24.09-19.91,0-5.06,2-10.56,5.94-16l10.56,3.74c-3,3-4.84,6.6-4.84,10,0,9.68,11.55,12.1,30.58,12.1a166.54,166.54,0,0,0,37-4.29Zm-45.32-59c4.29-2.53,10-6.05,15-8.91-5.28.22-10.89.33-16.72.33-7.81,0-16.06-.22-24.2-.77l.11-10.78c7,1.1,18.37,1.76,29.92,1.76A248.47,248.47,0,0,0,390,163.28l4.51,9.9c-7.59,3-21.56,11.77-28.71,16.61Z"/><path class="cls-1" d="M487.52,253c-13.53-15.18-40.15-34.32-54.45-42.79-4.73-2.75-6.82-6.16-6.82-9.35s2.2-6.49,6.16-8.91c9.79-5.94,34.76-24,49.83-39.27l9.9,10A501.52,501.52,0,0,1,445.5,196.5c-2.64,1.65-4.07,2.86-4.07,4s1.43,2.2,4.29,4a465.88,465.88,0,0,1,52,37.18Z"/><path class="cls-1" d="M552.64,191.55c-4.4,7.48-8.58,16.17-12.43,23.54-1.65,3.08-4,5.28-6.05,5.28-4.4,0-5.61-8.58-5.61-22.33,0-13,1.1-29.15,2.09-39.71l12.32,1.1c-1.76,9-3.52,23.21-3.52,30.91V191c0,3.41.44,4.84,1.43,4.84,1.32,0,3.63-3.08,7-8.47ZM546.48,240c19.36-.88,36.08-9.13,37.95-30.36.33-3.52.44-7.26.44-11.33,0-12.21-1.1-26.62-2-41.36l12.54-.11v2c0,16.17,1,32.34,1,44.22,0,12.43-.11,40.59-42.35,48.95Z"/><path class="cls-1" d="M692.89,247A96,96,0,0,0,667.7,230.6c.11.66.11,1.32.22,2s.11,1.1.11,1.65c0,10.23-9,14.63-19.58,14.63-4.4,0-27.06-1.21-27.06-17.16,0-2,.66-15.29,22.44-15.29A64.44,64.44,0,0,1,657.25,218c-.77-12.1-1.54-33.11-1.65-48.51l10.56.22c-.44,5.72-.55,12.1-.55,18.59,2,.11,4,.11,5.94.11a226.61,226.61,0,0,0,24-1.32v9.35c-8,.33-17.49.77-26.95.77h-2.75c.22,8.25.66,16.5,1.1,23.65a128.11,128.11,0,0,1,31.68,16.61Zm-34.76-15a36.74,36.74,0,0,0-.44-5.17,48,48,0,0,0-14.41-2.31c-11.11,0-12.21,5.5-12.21,7.26,0,7.37,15.07,7.92,16.5,7.92,5.61,0,10.56-1.76,10.56-6.93Z"/><path class="cls-1" d="M742.06,238.41c1.1,0,2.2.11,3.41.11,24.31,0,45.65-9.79,45.65-30.47,0-7.59-3.85-14-15.84-14-.77,0-1.43.11-2.2.11-15.73.88-33.88,5.28-48,8.58l-2.86-12c15.29-2.31,34.21-6.16,49.61-7.26,1.21-.11,2.42-.11,3.63-.11,17.38,0,27.17,9.79,27.17,25.08,0,27.5-24.64,40.81-56.76,41.8ZM782.76,172c-14.85-1-31.13-3-43.12-5.06l1.87-11.11c11.33,2.86,28.93,4.62,42.9,5.17Z"/><path class="cls-1" d="M827.31,233.24c16.72-17.38,28.05-43,30.69-66l13.31,2.42c-4.73,25-15.95,51.37-30.58,70.73Zm90.75,4.51c-5.5-21.12-16.83-48.73-28.49-67.32l11.66-4.4a354,354,0,0,1,30,65Zm5.06-60.39a10.67,10.67,0,1,1,10.67-10.67A10.61,10.61,0,0,1,923.12,177.36Zm0-16.17a5.5,5.5,0,1,0,5.5,5.5A5.31,5.31,0,0,0,923.12,161.19Z"/><path class="cls-1" d="M1037.63,207.61c-9.68-.33-27.5-.44-45.43-.44s-36,.11-46.09.44v-12.1c7.81.22,25,.33,42.68.33,20.35,0,41.14-.11,48.84-.33Z"/><path class="cls-1" d="M1060,239.84c37.84-7.81,59.07-31.57,66.11-58.63-2.75-.11-5.72-.11-8.91-.11-9.24,0-19.58.33-28.38.55a91.41,91.41,0,0,1-28.27,25.63l-9.9-8c21.12-10.34,33.88-28.05,38.61-44.22l12.1,3.52a109.81,109.81,0,0,1-5.72,12.1h5.72c10.23,0,21.78-.22,31-.77l8,7.59c-10.89,34.32-27.28,60.61-69.74,72.93Z"/><path class="cls-1" d="M324.55,60.18v-4.8h20.88v4.8Zm40.14,33.18c5.52,0,6.36-.42,6.36-1.56V51.9H352.81V71.34c0,8.22-.24,20-4.38,27.9l-4.8-4.5v2.34H331.87v2.28h-5.46V80.46h17.22v14.1c3.54-7.14,3.66-18,3.66-24.78V47.16h29.28V91.8c0,5.64-2.4,7.26-9.48,7.26ZM327.19,51.6V47.1h15.6v4.5Zm0,25V72.18h15.6v4.38Zm.06-8.1V64.08h15.54v4.38ZM338.17,84.9h-6.3V92h6.3ZM354,71.34V66.78h5.16v-5h-4.56v-4.2h4.56V53.1h5.4v4.44h4.68v4.2h-4.68v5h5.28v4.56Zm.84,19.08V74.88h13.74V90.42Zm8.94-11.1h-4.14v6.3h4.14Z"/><path class="cls-1" d="M441,88.5c7.44,0,7.62-.24,7.62-2.58V73.44H436.39V99.36h-6V73.44H419.11v21.3h-5.88V75.9a70.27,70.27,0,0,1-5.4,5l-4.08-5.4a63,63,0,0,0,17-17.64H405.19V52.5h18.3a38.66,38.66,0,0,0,3.3-7.14l6,1.14s-1.2,2.94-2.64,5.94h26.4v5.4h-28.8a72,72,0,0,1-7,10.2h9.6V61h6V68h18.12V86.52c0,4.8-1,7.26-11.1,7.26Z"/><line class="cls-2" x1="143.22" y1="43.3" x2="143.22" y2="73.01"/><path class="cls-1" d="M143.22,75.49,252.3,166.05H34.14L143.22,75.49m0-8.11a3.3,3.3,0,0,0-2.11.76L21.79,167.21a3.3,3.3,0,0,0,2.11,5.84H262.55a3.3,3.3,0,0,0,2.11-5.84L145.33,68.14a3.28,3.28,0,0,0-2.11-.76Z"/><path class="cls-2" d="M264.13,170.84c0,8.21-9.92,14.86-22.15,14.86s-22.14-6.65-22.14-14.86"/><path class="cls-2" d="M116,170.84c0,8.21-9.91,14.86-22.14,14.86S71.7,179.05,71.7,170.84"/><path class="cls-2" d="M165.37,170.84c0,8.21-9.91,14.86-22.14,14.86s-22.15-6.65-22.15-14.86"/><path class="cls-2" d="M214.75,170.84c0,8.21-9.92,14.86-22.15,14.86s-22.14-6.65-22.14-14.86"/><path class="cls-2" d="M66.62,170.84c0,8.21-9.92,14.86-22.15,14.86s-22.14-6.65-22.14-14.86"/><path class="cls-1" d="M147.33,11.06l37.89,18L147.33,47.56V11.06M140.33,0V58.78l61-29.85L140.33,0Z"/><path class="cls-1" d="M255.1,239.15l22.12,43H11.31l21.44-43H255.1m4.27-7H28.42L0,289.12H288.69l-29.32-57Z"/><path class="cls-1" d="M74.32,208.82c0-9.4,7.08-17.39,18.5-17.39a17.34,17.34,0,0,1,10.31,3.17,2.09,2.09,0,0,1,.48,3.23l-1.21,1.5c-.86,1.2-1.92,1.2-3.22.43a13.08,13.08,0,0,0-6.36-1.69c-6.75,0-10.84,4.82-10.84,10.75s4.09,10.74,10.84,10.74a13.08,13.08,0,0,0,6.36-1.69c1.3-.77,2.36-.77,3.22.44l1.21,1.49c.86,1.25.82,2.31-.24,3.08a17.2,17.2,0,0,1-10.55,3.33C81.4,226.21,74.32,218.21,74.32,208.82Z"/><path class="cls-1" d="M143.79,219.32l-5-9.16v13.2a2.09,2.09,0,0,1-2.32,2.32h-3a2.12,2.12,0,0,1-2.36-2.32V194.27a2.11,2.11,0,0,1,2.36-2.31h3a2.08,2.08,0,0,1,2.32,2.31v13.1l8.91-13.83a2.87,2.87,0,0,1,2.74-1.58h3.86c1.73,0,2.12,1,1.11,2.55L146,208.62l4.53,7.66c1.54,2.8,2.89,3.9,4.58,3.81a8.38,8.38,0,0,0,1.49-.34c1.25-.38,1.83.15,2.41,1.4l.48,1.06a2.19,2.19,0,0,1-1.3,3.18,11.33,11.33,0,0,1-4.34.82C149.47,226.21,145.91,223.6,143.79,219.32Z"/><path class="cls-1" d="M208.39,203.28c0,6.11-4,10.93-11.18,10.93h-7.37v9.15a2.09,2.09,0,0,1-2.31,2.32h-3a2.12,2.12,0,0,1-2.36-2.32V194.27a2.12,2.12,0,0,1,2.36-2.31h12.67C204.44,192,208.39,197.21,208.39,203.28Zm-7.71,0c0-2.79-1.78-4.91-4.48-4.91h-6.36v9.73h6.36A4.5,4.5,0,0,0,200.68,203.32Z"/></g></g></svg>