<?xml version="1.0" encoding="UTF-8"?><svg id="_イヤー_2" xmlns="http://www.w3.org/2000/svg" width="1140.37" height="289.12" viewBox="0 0 1140.37 289.12"><defs><style>.cls-1{fill:#fff;}.cls-2{fill:none;stroke:#fff;stroke-miterlimit:10;stroke-width:7px;}</style></defs><g id="_ゴ白"><g><path class="cls-1" d="M402.49,242.15c-12.1,2.09-25.74,2.86-37.4,2.86-7.15,0-13.53-.22-18.26-.77-16.17-1.76-24.09-9.9-24.09-19.91,0-5.06,1.98-10.56,5.94-15.95l10.56,3.74c-2.97,2.97-4.84,6.6-4.84,10.01,0,9.68,11.55,12.1,30.58,12.1,10.45,0,22.99-1.1,36.96-4.29l.55,12.21Zm-45.32-58.96c4.29-2.53,10.01-6.05,14.96-8.91-5.28,.22-10.89,.33-16.72,.33-7.81,0-16.06-.22-24.2-.77l.11-10.78c7.04,1.1,18.37,1.76,29.92,1.76,10.23,0,20.68-.55,28.71-1.54l4.51,9.9c-7.59,2.97-21.56,11.77-28.71,16.61l-8.58-6.6Z"/><path class="cls-1" d="M487.52,253.04c-13.53-15.18-40.15-34.32-54.45-42.79-4.73-2.75-6.82-6.16-6.82-9.35s2.2-6.49,6.16-8.91c9.79-5.94,34.76-23.98,49.83-39.27l9.9,10.01c-16.28,13.2-32.23,24.64-46.64,33.77-2.64,1.65-4.07,2.86-4.07,3.96s1.43,2.2,4.29,3.96c12.87,7.7,35.86,23.54,52.03,37.18l-10.23,11.44Z"/><path class="cls-1" d="M552.64,191.55c-4.4,7.48-8.58,16.17-12.43,23.54-1.65,3.08-3.96,5.28-6.05,5.28-4.4,0-5.61-8.58-5.61-22.33,0-12.98,1.1-29.15,2.09-39.71l12.32,1.1c-1.76,9.02-3.52,23.21-3.52,30.91v.66c0,3.41,.44,4.84,1.43,4.84,1.32,0,3.63-3.08,7.04-8.47l4.73,4.18Zm-6.16,48.4c19.36-.88,36.08-9.13,37.95-30.36,.33-3.52,.44-7.26,.44-11.33,0-12.21-1.1-26.62-1.98-41.36l12.54-.11v1.98c0,16.17,.99,32.34,.99,44.22s-.11,40.59-42.35,48.95l-7.59-11.99Z"/><path class="cls-1" d="M692.89,246.99c-5.94-5.61-15.18-11.88-25.19-16.39,.11,.66,.11,1.32,.22,1.98,0,.55,.11,1.1,.11,1.65,0,10.23-9.02,14.63-19.58,14.63-4.4,0-27.06-1.21-27.06-17.16,0-1.98,.66-15.29,22.44-15.29,4.29,0,8.8,.55,13.42,1.54-.77-12.1-1.54-33.11-1.65-48.51l10.56,.22c-.44,5.72-.55,12.1-.55,18.59,1.98,.11,3.96,.11,5.94,.11,8.36,0,17.05-.55,23.98-1.32v9.35c-8.03,.33-17.49,.77-26.95,.77h-2.75c.22,8.25,.66,16.5,1.1,23.65,11.11,3.85,22.11,9.79,31.68,16.61l-5.72,9.57Zm-34.76-14.96c0-.77,0-1.65-.44-5.17-4.84-1.54-9.79-2.31-14.41-2.31-11.11,0-12.21,5.5-12.21,7.26,0,7.37,15.07,7.92,16.5,7.92,5.61,0,10.56-1.76,10.56-6.93v-.77Z"/><path class="cls-1" d="M742.06,238.41c1.1,0,2.2,.11,3.41,.11,24.31,0,45.65-9.79,45.65-30.47,0-7.59-3.85-13.97-15.84-13.97-.77,0-1.43,.11-2.2,.11-15.73,.88-33.88,5.28-47.96,8.58l-2.86-11.99c15.29-2.31,34.21-6.16,49.61-7.26,1.21-.11,2.42-.11,3.63-.11,17.38,0,27.17,9.79,27.17,25.08,0,27.5-24.64,40.81-56.76,41.8l-3.85-11.88Zm40.7-66.44c-14.85-.99-31.13-2.97-43.12-5.06l1.87-11.11c11.33,2.86,28.93,4.62,42.9,5.17l-1.65,11Z"/><path class="cls-1" d="M827.31,233.24c16.72-17.38,28.05-43.01,30.69-66l13.31,2.42c-4.73,24.97-15.95,51.37-30.58,70.73l-13.42-7.15Zm90.75,4.51c-5.5-21.12-16.83-48.73-28.49-67.32l11.66-4.4c12.1,20.35,21.89,41.69,30.03,65.01l-13.2,6.71Zm5.06-60.39c-5.94,0-10.67-4.73-10.67-10.67s4.73-10.67,10.67-10.67,10.67,4.73,10.67,10.67-4.73,10.67-10.67,10.67Zm0-16.17c-3.41,0-5.5,2.53-5.5,5.5,0,3.41,2.53,5.5,5.5,5.5,3.41,0,5.5-2.53,5.5-5.5,0-3.41-2.53-5.5-5.5-5.5Z"/><path class="cls-1" d="M1037.63,207.61c-9.68-.33-27.5-.44-45.43-.44s-35.97,.11-46.09,.44v-12.1c7.81,.22,24.97,.33,42.68,.33,20.35,0,41.14-.11,48.84-.33v12.1Z"/><path class="cls-1" d="M1059.96,239.84c37.84-7.81,59.07-31.57,66.11-58.63-2.75-.11-5.72-.11-8.91-.11-9.24,0-19.58,.33-28.38,.55-7.04,9.79-16.28,18.59-28.27,25.63l-9.9-8.03c21.12-10.34,33.88-28.05,38.61-44.22l12.1,3.52c-1.65,4.07-3.52,8.14-5.72,12.1h5.72c10.23,0,21.78-.22,31.02-.77l8.03,7.59c-10.89,34.32-27.28,60.61-69.74,72.93l-10.67-10.56Z"/></g><g><path class="cls-1" d="M324.55,64.81v-6.3h27.4v6.3h-27.4Zm52.67,43.53c7.24,0,8.34-.55,8.34-2.05V53.94h-23.93v25.51c0,10.79-.32,26.29-5.75,36.61l-6.3-5.9v3.07h-15.43v2.99h-7.16v-24.8h22.59v18.5c4.64-9.37,4.8-23.62,4.8-32.51v-29.68h38.42v58.57c0,7.4-3.15,9.53-12.44,9.53l-3.15-7.48Zm-49.2-54.79v-5.9h20.47v5.9h-20.47Zm0,32.75v-5.75h20.47v5.75h-20.47Zm.08-10.63v-5.75h20.39v5.75h-20.39Zm14.33,21.57h-8.27v9.29h8.27v-9.29Zm20.78-17.79v-5.98h6.77v-6.61h-5.98v-5.51h5.98v-5.83h7.08v5.83h6.14v5.51h-6.14v6.61h6.93v5.98h-20.78Zm1.1,25.03v-20.39h18.03v20.39h-18.03Zm11.73-14.56h-5.43v8.27h5.43v-8.27Z"/><path class="cls-1" d="M477.36,101.97c9.76,0,10-.31,10-3.38v-16.37h-16.06v34.01h-7.87v-34.01h-14.8v27.95h-7.72v-24.72s-3.94,4.09-7.09,6.61l-5.35-7.09c9.6-6.61,17.79-15.82,22.28-23.14h-20.39v-7.09h24.01c2.83-4.72,4.33-9.37,4.33-9.37l7.87,1.5s-1.57,3.86-3.46,7.79h34.64v7.09h-37.79c-1.97,3.62-5.67,9.21-9.13,13.38h12.6v-9.29h7.87v9.29h23.77v24.25c0,6.3-1.34,9.53-14.56,9.53l-3.15-6.93Z"/></g><line class="cls-2" x1="143.22" y1="43.3" x2="143.22" y2="73.01"/><path class="cls-1" d="M143.22,75.49l109.08,90.57H34.14l109.08-90.57m0-8.11c-.75,0-1.5,.25-2.11,.76L21.79,167.21c-2.38,1.97-.98,5.84,2.11,5.84h238.65c3.09,0,4.49-3.87,2.11-5.84l-119.32-99.07c-.61-.51-1.36-.76-2.11-.76h0Z"/><path class="cls-2" d="M264.13,170.84c0,8.2-9.91,14.85-22.15,14.85s-22.15-6.65-22.15-14.85"/><path class="cls-2" d="M115.99,170.84c0,8.2-9.91,14.85-22.15,14.85s-22.15-6.65-22.15-14.85"/><path class="cls-2" d="M165.37,170.84c0,8.2-9.91,14.85-22.15,14.85s-22.15-6.65-22.15-14.85"/><path class="cls-2" d="M214.75,170.84c0,8.2-9.91,14.85-22.15,14.85s-22.15-6.65-22.15-14.85"/><path class="cls-2" d="M66.62,170.84c0,8.2-9.91,14.85-22.15,14.85s-22.15-6.65-22.15-14.85"/><path class="cls-1" d="M147.33,11.06l37.89,17.96-37.89,18.53V11.06m-7-11.06V58.78l61.02-29.85L140.33,0h0Z"/><path class="cls-1" d="M255.1,239.15l22.12,42.98H11.31l21.44-42.98H255.1m4.27-7H28.42L0,289.12H288.69l-29.32-56.98h0Z"/><g><path class="cls-1" d="M74.32,208.82c0-9.39,7.08-17.39,18.5-17.39,4.34,0,7.51,1.25,10.31,3.18,1.2,.82,1.35,2.02,.48,3.23l-1.2,1.49c-.87,1.2-1.93,1.2-3.23,.43-1.93-1.11-4.24-1.69-6.36-1.69-6.74,0-10.84,4.82-10.84,10.74s4.09,10.74,10.84,10.74c2.12,0,4.43-.58,6.36-1.69,1.3-.77,2.36-.77,3.23,.43l1.2,1.49c.87,1.25,.82,2.31-.24,3.08-2.84,2.02-6.07,3.32-10.55,3.32-11.42,0-18.5-8-18.5-17.39Z"/><path class="cls-1" d="M143.79,219.32l-5.01-9.15v13.2c0,1.49-.82,2.31-2.31,2.31h-2.99c-1.49,0-2.36-.82-2.36-2.31v-29.1c0-1.49,.87-2.31,2.36-2.31h2.99c1.49,0,2.31,.82,2.31,2.31v13.1l8.91-13.83c.63-1.11,1.49-1.59,2.75-1.59h3.85c1.73,0,2.12,.96,1.11,2.55l-9.39,14.11,4.53,7.66c1.54,2.79,2.89,3.9,4.58,3.81,.34-.05,.96-.14,1.49-.34,1.25-.38,1.83,.15,2.41,1.4l.48,1.06c.58,1.3,.24,2.55-1.3,3.18-1.4,.58-2.89,.82-4.34,.82-4.38,0-7.95-2.6-10.07-6.89Z"/><path class="cls-1" d="M208.39,203.28c0,6.12-4,10.94-11.18,10.94h-7.37v9.15c0,1.49-.82,2.31-2.31,2.31h-2.99c-1.49,0-2.36-.82-2.36-2.31v-29.1c0-1.49,.87-2.31,2.36-2.31h12.67c7.23,0,11.18,5.25,11.18,11.32Zm-7.71,.05c0-2.79-1.78-4.91-4.48-4.91h-6.36v9.73h6.36c2.7,0,4.48-2.12,4.48-4.82Z"/></g></g></svg>