<svg xmlns="http://www.w3.org/2000/svg" xmlns:xlink="http://www.w3.org/1999/xlink" width="768" height="18" viewBox="0 0 768 18">
  <defs>
    <clipPath id="clip-path">
      <rect width="768" height="18" fill="none"/>
    </clipPath>
  </defs>
  <g id="line_wave_green_bottom" clip-path="url(#clip-path)">
    <g transform="translate(0 -2038)">
      <path id="パス_187" data-name="パス 187" d="M-640-161c0,9.941,10.074,18,22.5,18,10.11,0,18.663-5.335,21.5-12.678,2.837,7.343,11.39,12.678,21.5,12.678s18.662-5.334,21.5-12.676c2.837,7.343,11.39,12.676,21.5,12.676s18.663-5.335,21.5-12.677c2.837,7.343,11.39,12.677,21.5,12.677s18.663-5.335,21.5-12.678c2.837,7.343,11.39,12.678,21.5,12.678s18.663-5.335,21.5-12.678c2.837,7.343,11.39,12.678,21.5,12.678s18.663-5.335,21.5-12.677C-378.163-148.335-369.61-143-359.5-143s18.662-5.334,21.5-12.676c2.837,7.343,11.39,12.676,21.5,12.676s18.663-5.335,21.5-12.678c2.837,7.343,11.39,12.678,21.5,12.678s18.663-5.335,21.5-12.678c2.837,7.343,11.39,12.678,21.5,12.678s18.663-5.335,21.5-12.678c2.837,7.343,11.39,12.678,21.5,12.678s18.662-5.334,21.5-12.676c2.837,7.343,11.39,12.676,21.5,12.676s18.663-5.335,21.5-12.677c2.837,7.343,11.39,12.677,21.5,12.677s18.663-5.335,21.5-12.678C-77.163-148.335-68.61-143-58.5-143s18.663-5.335,21.5-12.678C-34.163-148.335-25.61-143-15.5-143S3.163-148.335,6-155.678C8.837-148.335,17.39-143,27.5-143s18.662-5.334,21.5-12.676C51.837-148.334,60.39-143,70.5-143s18.663-5.335,21.5-12.678C94.837-148.335,103.39-143,113.5-143s18.663-5.335,21.5-12.678C137.837-148.335,146.39-143,156.5-143s18.663-5.335,21.5-12.678C180.837-148.335,189.39-143,199.5-143s18.662-5.334,21.5-12.676C223.837-148.334,232.39-143,242.5-143s18.663-5.335,21.5-12.677C266.837-148.335,275.39-143,285.5-143s18.663-5.335,21.5-12.678C309.837-148.335,318.39-143,328.5-143s18.663-5.335,21.5-12.678C352.837-148.335,361.39-143,371.5-143s18.663-5.335,21.5-12.677C395.837-148.335,404.39-143,414.5-143s18.662-5.334,21.5-12.676C438.837-148.334,447.39-143,457.5-143s18.663-5.335,21.5-12.678C481.837-148.335,490.39-143,500.5-143s18.663-5.335,21.5-12.678C524.837-148.335,533.39-143,543.5-143s18.663-5.335,21.5-12.678C567.837-148.335,576.39-143,586.5-143s18.662-5.334,21.5-12.676C610.837-148.334,619.39-143,629.5-143s18.663-5.335,21.5-12.677C653.837-148.335,662.39-143,672.5-143s18.663-5.335,21.5-12.678C696.837-148.335,705.39-143,715.5-143c12.426,0,22.5-8.059,22.5-18" transform="translate(640 2197)" fill="#def496"/>
    </g>
  </g>
</svg>
