<svg xmlns="http://www.w3.org/2000/svg" xmlns:xlink="http://www.w3.org/1999/xlink" width="768" height="18" viewBox="0 0 768 18">
  <defs>
    <clipPath id="clip-path">
      <rect width="768" height="18" fill="none"/>
    </clipPath>
  </defs>
  <g id="line_wave_blue_bottom" clip-path="url(#clip-path)">
    <g transform="translate(0 -3002)">
      <path id="パス_188" data-name="パス 188" d="M738-161c0,9.941-10.074,18-22.5,18-10.11,0-18.663-5.335-21.5-12.678C691.163-148.335,682.61-143,672.5-143s-18.662-5.334-21.5-12.676C648.163-148.334,639.61-143,629.5-143s-18.663-5.335-21.5-12.677C605.163-148.335,596.61-143,586.5-143s-18.663-5.335-21.5-12.678C562.163-148.335,553.61-143,543.5-143s-18.663-5.335-21.5-12.678C519.163-148.335,510.61-143,500.5-143s-18.663-5.335-21.5-12.677C476.163-148.335,467.61-143,457.5-143s-18.662-5.334-21.5-12.676C433.163-148.334,424.61-143,414.5-143s-18.663-5.335-21.5-12.678C390.163-148.335,381.61-143,371.5-143s-18.663-5.335-21.5-12.678C347.163-148.335,338.61-143,328.5-143s-18.663-5.335-21.5-12.678C304.163-148.335,295.61-143,285.5-143s-18.662-5.334-21.5-12.676C261.163-148.334,252.61-143,242.5-143s-18.663-5.335-21.5-12.677C218.163-148.335,209.61-143,199.5-143s-18.663-5.335-21.5-12.678C175.163-148.335,166.61-143,156.5-143s-18.663-5.335-21.5-12.678C132.163-148.335,123.61-143,113.5-143S94.837-148.335,92-155.678C89.163-148.335,80.61-143,70.5-143S51.837-148.334,49-155.677C46.163-148.334,37.61-143,27.5-143S8.837-148.335,6-155.678C3.163-148.335-5.39-143-15.5-143s-18.663-5.335-21.5-12.678C-39.837-148.335-48.39-143-58.5-143s-18.663-5.335-21.5-12.678C-82.837-148.335-91.39-143-101.5-143s-18.662-5.334-21.5-12.676C-125.837-148.334-134.39-143-144.5-143s-18.663-5.335-21.5-12.677C-168.837-148.335-177.39-143-187.5-143s-18.663-5.335-21.5-12.678C-211.837-148.335-220.39-143-230.5-143s-18.663-5.335-21.5-12.678C-254.837-148.335-263.39-143-273.5-143s-18.663-5.335-21.5-12.677C-297.837-148.335-306.39-143-316.5-143s-18.662-5.334-21.5-12.676C-340.837-148.334-349.39-143-359.5-143s-18.663-5.335-21.5-12.678C-383.837-148.335-392.39-143-402.5-143s-18.663-5.335-21.5-12.678C-426.837-148.335-435.39-143-445.5-143s-18.663-5.335-21.5-12.678C-469.837-148.335-478.39-143-488.5-143s-18.662-5.334-21.5-12.676c-2.837,7.343-11.39,12.676-21.5,12.676s-18.663-5.335-21.5-12.677C-555.837-148.335-564.39-143-574.5-143s-18.663-5.335-21.5-12.678C-598.837-148.335-607.39-143-617.5-143c-12.426,0-22.5-8.059-22.5-18" transform="translate(640 3163)" fill="#ccfaff"/>
    </g>
  </g>
</svg>
