<svg xmlns="http://www.w3.org/2000/svg" xmlns:xlink="http://www.w3.org/1999/xlink" width="1366" height="18" viewBox="0 0 1366 18">
  <defs>
    <clipPath id="clip-path">
      <rect width="1366" height="18" fill="none"/>
    </clipPath>
  </defs>
  <g id="リピートグリッド_27" data-name="リピートグリッド 27" clip-path="url(#clip-path)">
    <g transform="translate(0 -749)">
      <path id="パス_186" data-name="パス 186" d="M-640-143c0-9.941,10.074-18,22.5-18,10.11,0,18.663,5.335,21.5,12.678,2.837-7.343,11.39-12.678,21.5-12.678s18.662,5.334,21.5,12.676c2.837-7.343,11.39-12.676,21.5-12.676s18.663,5.335,21.5,12.677c2.837-7.343,11.39-12.677,21.5-12.677s18.663,5.335,21.5,12.678c2.837-7.343,11.39-12.678,21.5-12.678s18.663,5.335,21.5,12.678c2.837-7.343,11.39-12.678,21.5-12.678s18.663,5.335,21.5,12.677C-378.163-155.665-369.61-161-359.5-161s18.662,5.334,21.5,12.676c2.837-7.343,11.39-12.676,21.5-12.676s18.663,5.335,21.5,12.678c2.837-7.343,11.39-12.678,21.5-12.678s18.663,5.335,21.5,12.678c2.837-7.343,11.39-12.678,21.5-12.678s18.663,5.335,21.5,12.678c2.837-7.343,11.39-12.678,21.5-12.678s18.662,5.334,21.5,12.676c2.837-7.343,11.39-12.676,21.5-12.676s18.663,5.335,21.5,12.677c2.837-7.343,11.39-12.677,21.5-12.677s18.663,5.335,21.5,12.678C-77.163-155.665-68.61-161-58.5-161s18.663,5.335,21.5,12.678C-34.163-155.665-25.61-161-15.5-161S3.163-155.665,6-148.323C8.837-155.665,17.39-161,27.5-161s18.662,5.334,21.5,12.676C51.837-155.666,60.39-161,70.5-161s18.663,5.335,21.5,12.678C94.837-155.665,103.39-161,113.5-161s18.663,5.335,21.5,12.678C137.837-155.665,146.39-161,156.5-161s18.663,5.335,21.5,12.678C180.837-155.665,189.39-161,199.5-161s18.662,5.334,21.5,12.676C223.837-155.666,232.39-161,242.5-161s18.663,5.335,21.5,12.677C266.837-155.665,275.39-161,285.5-161s18.663,5.335,21.5,12.678C309.837-155.665,318.39-161,328.5-161s18.663,5.335,21.5,12.678C352.837-155.665,361.39-161,371.5-161s18.663,5.335,21.5,12.677C395.837-155.665,404.39-161,414.5-161s18.662,5.334,21.5,12.676C438.837-155.666,447.39-161,457.5-161s18.663,5.335,21.5,12.678C481.837-155.665,490.39-161,500.5-161s18.663,5.335,21.5,12.678C524.837-155.665,533.39-161,543.5-161s18.663,5.335,21.5,12.678C567.837-155.665,576.39-161,586.5-161s18.662,5.334,21.5,12.676C610.837-155.666,619.39-161,629.5-161s18.663,5.335,21.5,12.677C653.837-155.665,662.39-161,672.5-161s18.663,5.335,21.5,12.678C696.837-155.665,705.39-161,715.5-161c12.426,0,22.5,8.059,22.5,18" transform="translate(640 910)" fill="#def496"/>
    </g>
  </g>
</svg>
