<svg xmlns="http://www.w3.org/2000/svg" xmlns:xlink="http://www.w3.org/1999/xlink" width="375" height="7.82" viewBox="0 0 375 7.82">
  <defs>
    <clipPath id="clip-path">
      <rect width="375" height="7.82" fill="none"/>
    </clipPath>
  </defs>
  <g id="line_wave_green_top" clip-path="url(#clip-path)">
    <g transform="translate(0 -813.18)">
      <path id="パス_186" data-name="パス 186" d="M-640-153.18c0-4.319,4.883-7.82,10.906-7.82,4.9,0,9.046,2.318,10.421,5.508,1.375-3.19,5.521-5.508,10.421-5.508s9.046,2.317,10.421,5.507c1.375-3.19,5.521-5.507,10.421-5.507s9.046,2.318,10.421,5.508c1.375-3.19,5.521-5.508,10.421-5.508s9.046,2.318,10.421,5.508c1.375-3.19,5.521-5.508,10.421-5.508s9.046,2.318,10.421,5.508c1.375-3.19,5.521-5.508,10.421-5.508s9.046,2.318,10.421,5.508c1.375-3.19,5.52-5.508,10.421-5.508s9.046,2.317,10.421,5.507c1.375-3.19,5.52-5.507,10.421-5.507s9.046,2.318,10.421,5.508c1.375-3.19,5.521-5.508,10.421-5.508s9.046,2.318,10.421,5.508c1.375-3.19,5.521-5.508,10.421-5.508s9.046,2.318,10.421,5.508c1.375-3.19,5.521-5.508,10.421-5.508s9.046,2.317,10.421,5.507c1.375-3.19,5.521-5.507,10.421-5.507s9.046,2.318,10.421,5.508c1.375-3.19,5.521-5.508,10.421-5.508s9.046,2.318,10.421,5.508c1.375-3.19,5.521-5.508,10.421-5.508s9.046,2.318,10.421,5.508c1.375-3.19,5.521-5.508,10.421-5.508s9.046,2.318,10.421,5.508c1.375-3.19,5.52-5.508,10.421-5.508s9.046,2.317,10.421,5.507c1.375-3.19,5.521-5.507,10.421-5.507s9.046,2.318,10.421,5.508c1.375-3.19,5.521-5.508,10.421-5.508s9.046,2.318,10.421,5.508c1.375-3.19,5.521-5.508,10.421-5.508s9.046,2.318,10.421,5.508C-242.144-158.682-238-161-233.1-161s9.046,2.317,10.421,5.507c1.375-3.19,5.521-5.507,10.421-5.507s9.046,2.318,10.421,5.508c1.375-3.19,5.521-5.508,10.421-5.508s9.046,2.318,10.421,5.508c1.375-3.19,5.521-5.508,10.421-5.508s9.046,2.318,10.421,5.508c1.375-3.19,5.521-5.508,10.421-5.508s9.046,2.318,10.421,5.508c1.375-3.19,5.52-5.508,10.421-5.508s9.046,2.317,10.421,5.507c1.375-3.19,5.52-5.507,10.421-5.507s9.046,2.318,10.421,5.508c1.375-3.19,5.521-5.508,10.421-5.508s9.046,2.318,10.421,5.508c1.375-3.19,5.521-5.508,10.421-5.508s9.046,2.318,10.421,5.508c1.375-3.19,5.521-5.508,10.421-5.508s9.046,2.317,10.421,5.507c1.375-3.19,5.52-5.507,10.421-5.507s9.046,2.318,10.421,5.508C-12.884-158.682-8.738-161-3.838-161s9.046,2.318,10.421,5.508C7.958-158.682,12.1-161,17-161c6.023,0,10.906,3.5,10.906,7.82" transform="translate(640 974.18)" fill="#def496"/>
    </g>
  </g>
</svg>
