<svg xmlns="http://www.w3.org/2000/svg" xmlns:xlink="http://www.w3.org/1999/xlink" width="768" height="20" viewBox="0 0 768 20">
  <defs>
    <clipPath id="clip-path">
      <rect width="768" height="20" fill="none"/>
    </clipPath>
    <clipPath id="clip-path-2">
      <rect width="1369.088" height="20" fill="none"/>
    </clipPath>
  </defs>
  <g id="line_stripe" clip-path="url(#clip-path)">
    <g id="グループ_52" data-name="グループ 52" transform="translate(0 -3823)">
      <rect id="長方形_319" data-name="長方形 319" width="1369" height="20" transform="translate(0 3823)" fill="#e8c1e1"/>
      <g id="リピートグリッド_12" data-name="リピートグリッド 12" transform="translate(0 3823)" clip-path="url(#clip-path-2)">
        <g transform="translate(0 -3823)">
          <path id="前面オブジェクトで型抜き_2" data-name="前面オブジェクトで型抜き 2" d="M-587.578-141h-11.547l11.547-20h11.524l.017.01L-587.578-141Zm-24,0h-11.548l11.547-20h11.525l.017.01L-611.577-141Z" transform="translate(623.125 3984)" fill="#fff948"/>
        </g>
        <g transform="translate(48 -3823)">
          <path id="前面オブジェクトで型抜き_2-2" data-name="前面オブジェクトで型抜き 2" d="M-587.578-141h-11.547l11.547-20h11.524l.017.01L-587.578-141Zm-24,0h-11.548l11.547-20h11.525l.017.01L-611.577-141Z" transform="translate(623.125 3984)" fill="#fff948"/>
        </g>
        <g transform="translate(96 -3823)">
          <path id="前面オブジェクトで型抜き_2-3" data-name="前面オブジェクトで型抜き 2" d="M-587.578-141h-11.547l11.547-20h11.524l.017.01L-587.578-141Zm-24,0h-11.548l11.547-20h11.525l.017.01L-611.577-141Z" transform="translate(623.125 3984)" fill="#fff948"/>
        </g>
        <g transform="translate(144 -3823)">
          <path id="前面オブジェクトで型抜き_2-4" data-name="前面オブジェクトで型抜き 2" d="M-587.578-141h-11.547l11.547-20h11.524l.017.01L-587.578-141Zm-24,0h-11.548l11.547-20h11.525l.017.01L-611.577-141Z" transform="translate(623.125 3984)" fill="#fff948"/>
        </g>
        <g transform="translate(192 -3823)">
          <path id="前面オブジェクトで型抜き_2-5" data-name="前面オブジェクトで型抜き 2" d="M-587.578-141h-11.547l11.547-20h11.524l.017.01L-587.578-141Zm-24,0h-11.548l11.547-20h11.525l.017.01L-611.577-141Z" transform="translate(623.125 3984)" fill="#fff948"/>
        </g>
        <g transform="translate(240 -3823)">
          <path id="前面オブジェクトで型抜き_2-6" data-name="前面オブジェクトで型抜き 2" d="M-587.578-141h-11.547l11.547-20h11.524l.017.01L-587.578-141Zm-24,0h-11.548l11.547-20h11.525l.017.01L-611.577-141Z" transform="translate(623.125 3984)" fill="#fff948"/>
        </g>
        <g transform="translate(288 -3823)">
          <path id="前面オブジェクトで型抜き_2-7" data-name="前面オブジェクトで型抜き 2" d="M-587.578-141h-11.547l11.547-20h11.524l.017.01L-587.578-141Zm-24,0h-11.548l11.547-20h11.525l.017.01L-611.577-141Z" transform="translate(623.125 3984)" fill="#fff948"/>
        </g>
        <g transform="translate(336 -3823)">
          <path id="前面オブジェクトで型抜き_2-8" data-name="前面オブジェクトで型抜き 2" d="M-587.578-141h-11.547l11.547-20h11.524l.017.01L-587.578-141Zm-24,0h-11.548l11.547-20h11.525l.017.01L-611.577-141Z" transform="translate(623.125 3984)" fill="#fff948"/>
        </g>
        <g transform="translate(384 -3823)">
          <path id="前面オブジェクトで型抜き_2-9" data-name="前面オブジェクトで型抜き 2" d="M-587.578-141h-11.547l11.547-20h11.524l.017.01L-587.578-141Zm-24,0h-11.548l11.547-20h11.525l.017.01L-611.577-141Z" transform="translate(623.125 3984)" fill="#fff948"/>
        </g>
        <g transform="translate(432 -3823)">
          <path id="前面オブジェクトで型抜き_2-10" data-name="前面オブジェクトで型抜き 2" d="M-587.578-141h-11.547l11.547-20h11.524l.017.01L-587.578-141Zm-24,0h-11.548l11.547-20h11.525l.017.01L-611.577-141Z" transform="translate(623.125 3984)" fill="#fff948"/>
        </g>
        <g transform="translate(480 -3823)">
          <path id="前面オブジェクトで型抜き_2-11" data-name="前面オブジェクトで型抜き 2" d="M-587.578-141h-11.547l11.547-20h11.524l.017.01L-587.578-141Zm-24,0h-11.548l11.547-20h11.525l.017.01L-611.577-141Z" transform="translate(623.125 3984)" fill="#fff948"/>
        </g>
        <g transform="translate(528 -3823)">
          <path id="前面オブジェクトで型抜き_2-12" data-name="前面オブジェクトで型抜き 2" d="M-587.578-141h-11.547l11.547-20h11.524l.017.01L-587.578-141Zm-24,0h-11.548l11.547-20h11.525l.017.01L-611.577-141Z" transform="translate(623.125 3984)" fill="#fff948"/>
        </g>
        <g transform="translate(576 -3823)">
          <path id="前面オブジェクトで型抜き_2-13" data-name="前面オブジェクトで型抜き 2" d="M-587.578-141h-11.547l11.547-20h11.524l.017.01L-587.578-141Zm-24,0h-11.548l11.547-20h11.525l.017.01L-611.577-141Z" transform="translate(623.125 3984)" fill="#fff948"/>
        </g>
        <g transform="translate(624 -3823)">
          <path id="前面オブジェクトで型抜き_2-14" data-name="前面オブジェクトで型抜き 2" d="M-587.578-141h-11.547l11.547-20h11.524l.017.01L-587.578-141Zm-24,0h-11.548l11.547-20h11.525l.017.01L-611.577-141Z" transform="translate(623.125 3984)" fill="#fff948"/>
        </g>
        <g transform="translate(672 -3823)">
          <path id="前面オブジェクトで型抜き_2-15" data-name="前面オブジェクトで型抜き 2" d="M-587.578-141h-11.547l11.547-20h11.524l.017.01L-587.578-141Zm-24,0h-11.548l11.547-20h11.525l.017.01L-611.577-141Z" transform="translate(623.125 3984)" fill="#fff948"/>
        </g>
        <g transform="translate(720 -3823)">
          <path id="前面オブジェクトで型抜き_2-16" data-name="前面オブジェクトで型抜き 2" d="M-587.578-141h-11.547l11.547-20h11.524l.017.01L-587.578-141Zm-24,0h-11.548l11.547-20h11.525l.017.01L-611.577-141Z" transform="translate(623.125 3984)" fill="#fff948"/>
        </g>
        <g transform="translate(768 -3823)">
          <path id="前面オブジェクトで型抜き_2-17" data-name="前面オブジェクトで型抜き 2" d="M-587.578-141h-11.547l11.547-20h11.524l.017.01L-587.578-141Zm-24,0h-11.548l11.547-20h11.525l.017.01L-611.577-141Z" transform="translate(623.125 3984)" fill="#fff948"/>
        </g>
        <g transform="translate(816 -3823)">
          <path id="前面オブジェクトで型抜き_2-18" data-name="前面オブジェクトで型抜き 2" d="M-587.578-141h-11.547l11.547-20h11.524l.017.01L-587.578-141Zm-24,0h-11.548l11.547-20h11.525l.017.01L-611.577-141Z" transform="translate(623.125 3984)" fill="#fff948"/>
        </g>
        <g transform="translate(864 -3823)">
          <path id="前面オブジェクトで型抜き_2-19" data-name="前面オブジェクトで型抜き 2" d="M-587.578-141h-11.547l11.547-20h11.524l.017.01L-587.578-141Zm-24,0h-11.548l11.547-20h11.525l.017.01L-611.577-141Z" transform="translate(623.125 3984)" fill="#fff948"/>
        </g>
        <g transform="translate(912 -3823)">
          <path id="前面オブジェクトで型抜き_2-20" data-name="前面オブジェクトで型抜き 2" d="M-587.578-141h-11.547l11.547-20h11.524l.017.01L-587.578-141Zm-24,0h-11.548l11.547-20h11.525l.017.01L-611.577-141Z" transform="translate(623.125 3984)" fill="#fff948"/>
        </g>
        <g transform="translate(960 -3823)">
          <path id="前面オブジェクトで型抜き_2-21" data-name="前面オブジェクトで型抜き 2" d="M-587.578-141h-11.547l11.547-20h11.524l.017.01L-587.578-141Zm-24,0h-11.548l11.547-20h11.525l.017.01L-611.577-141Z" transform="translate(623.125 3984)" fill="#fff948"/>
        </g>
        <g transform="translate(1008 -3823)">
          <path id="前面オブジェクトで型抜き_2-22" data-name="前面オブジェクトで型抜き 2" d="M-587.578-141h-11.547l11.547-20h11.524l.017.01L-587.578-141Zm-24,0h-11.548l11.547-20h11.525l.017.01L-611.577-141Z" transform="translate(623.125 3984)" fill="#fff948"/>
        </g>
        <g transform="translate(1056 -3823)">
          <path id="前面オブジェクトで型抜き_2-23" data-name="前面オブジェクトで型抜き 2" d="M-587.578-141h-11.547l11.547-20h11.524l.017.01L-587.578-141Zm-24,0h-11.548l11.547-20h11.525l.017.01L-611.577-141Z" transform="translate(623.125 3984)" fill="#fff948"/>
        </g>
        <g transform="translate(1104 -3823)">
          <path id="前面オブジェクトで型抜き_2-24" data-name="前面オブジェクトで型抜き 2" d="M-587.578-141h-11.547l11.547-20h11.524l.017.01L-587.578-141Zm-24,0h-11.548l11.547-20h11.525l.017.01L-611.577-141Z" transform="translate(623.125 3984)" fill="#fff948"/>
        </g>
        <g transform="translate(1152 -3823)">
          <path id="前面オブジェクトで型抜き_2-25" data-name="前面オブジェクトで型抜き 2" d="M-587.578-141h-11.547l11.547-20h11.524l.017.01L-587.578-141Zm-24,0h-11.548l11.547-20h11.525l.017.01L-611.577-141Z" transform="translate(623.125 3984)" fill="#fff948"/>
        </g>
        <g transform="translate(1200 -3823)">
          <path id="前面オブジェクトで型抜き_2-26" data-name="前面オブジェクトで型抜き 2" d="M-587.578-141h-11.547l11.547-20h11.524l.017.01L-587.578-141Zm-24,0h-11.548l11.547-20h11.525l.017.01L-611.577-141Z" transform="translate(623.125 3984)" fill="#fff948"/>
        </g>
        <g transform="translate(1248 -3823)">
          <path id="前面オブジェクトで型抜き_2-27" data-name="前面オブジェクトで型抜き 2" d="M-587.578-141h-11.547l11.547-20h11.524l.017.01L-587.578-141Zm-24,0h-11.548l11.547-20h11.525l.017.01L-611.577-141Z" transform="translate(623.125 3984)" fill="#fff948"/>
        </g>
        <g transform="translate(1296 -3823)">
          <path id="前面オブジェクトで型抜き_2-28" data-name="前面オブジェクトで型抜き 2" d="M-587.578-141h-11.547l11.547-20h11.524l.017.01L-587.578-141Zm-24,0h-11.548l11.547-20h11.525l.017.01L-611.577-141Z" transform="translate(623.125 3984)" fill="#fff948"/>
        </g>
        <g transform="translate(1344 -3823)">
          <path id="前面オブジェクトで型抜き_2-29" data-name="前面オブジェクトで型抜き 2" d="M-587.578-141h-11.547l11.547-20h11.524l.017.01L-587.578-141Zm-24,0h-11.548l11.547-20h11.525l.017.01L-611.577-141Z" transform="translate(623.125 3984)" fill="#fff948"/>
        </g>
      </g>
    </g>
  </g>
</svg>
