<svg xmlns="http://www.w3.org/2000/svg" xmlns:xlink="http://www.w3.org/1999/xlink" width="375" height="9" viewBox="0 0 375 9">
  <defs>
    <clipPath id="clip-path">
      <rect width="375" height="9" fill="none"/>
    </clipPath>
  </defs>
  <g id="line_wave_blue_bottom" clip-path="url(#clip-path)">
    <g transform="translate(146.455 -2025)">
      <path id="パス_236" data-name="パス 236" d="M27.91-153.18C27.91-157.5,23.027-161,17-161c-4.9,0-9.046,2.318-10.421,5.508C5.208-158.682,1.063-161-3.838-161s-9.046,2.317-10.421,5.507c-1.375-3.19-5.521-5.507-10.421-5.507s-9.046,2.318-10.421,5.508c-1.375-3.19-5.521-5.508-10.421-5.508s-9.046,2.318-10.421,5.508c-1.375-3.19-5.521-5.508-10.421-5.508s-9.046,2.318-10.421,5.508C-78.159-158.682-82.3-161-87.205-161s-9.046,2.318-10.421,5.508C-99-158.682-103.147-161-108.047-161s-9.046,2.317-10.421,5.507c-1.375-3.19-5.52-5.507-10.421-5.507s-9.046,2.318-10.421,5.508c-1.375-3.19-5.521-5.508-10.421-5.508s-9.046,2.318-10.421,5.508c-1.375-3.19-5.521-5.508-10.421-5.508s-9.046,2.318-10.421,5.508c-1.375-3.19-5.521-5.508-10.421-5.508s-9.046,2.317-10.421,5.507c-1.375-3.19-5.521-5.507-10.421-5.507s-9.046,2.318-10.421,5.508C-224.052-158.682-228.2-161-233.1-161s-9.046,2.318-10.421,5.508c-1.375-3.19-5.521-5.508-10.421-5.508s-9.046,2.318-10.421,5.508c-1.375-3.19-5.521-5.508-10.421-5.508s-9.046,2.318-10.421,5.508c-1.375-3.19-5.52-5.508-10.421-5.508s-9.046,2.317-10.421,5.507c-1.375-3.19-5.521-5.507-10.421-5.507s-9.046,2.318-10.421,5.508c-1.375-3.19-5.521-5.508-10.421-5.508s-9.046,2.318-10.421,5.508c-1.375-3.19-5.521-5.508-10.421-5.508s-9.046,2.318-10.421,5.508c-1.375-3.19-5.521-5.508-10.421-5.508s-9.046,2.317-10.421,5.507c-1.375-3.19-5.521-5.507-10.421-5.507s-9.046,2.318-10.421,5.508c-1.375-3.19-5.521-5.508-10.421-5.508s-9.046,2.318-10.421,5.508c-1.375-3.19-5.521-5.508-10.421-5.508s-9.046,2.318-10.421,5.508c-1.375-3.19-5.521-5.508-10.421-5.508s-9.046,2.318-10.421,5.508c-1.375-3.19-5.52-5.508-10.421-5.508s-9.046,2.317-10.421,5.507C-495-158.683-499.143-161-504.043-161s-9.046,2.318-10.421,5.508c-1.375-3.19-5.521-5.508-10.421-5.508s-9.046,2.318-10.421,5.508c-1.375-3.19-5.521-5.508-10.421-5.508s-9.046,2.318-10.421,5.508c-1.375-3.19-5.521-5.508-10.421-5.508s-9.046,2.317-10.421,5.507c-1.375-3.19-5.521-5.507-10.421-5.507s-9.046,2.318-10.421,5.508c-1.375-3.19-5.521-5.508-10.421-5.508s-9.046,2.318-10.421,5.508c-1.375-3.19-5.521-5.508-10.421-5.508-6.023,0-10.906,3.5-10.906,7.82" transform="translate(-118.545 1871.82) rotate(180)" fill="#ccfaff"/>
    </g>
  </g>
</svg>
