<?xml version="1.0" encoding="UTF-8"?><svg id="_イヤー_2" xmlns="http://www.w3.org/2000/svg" width="90" height="90" xmlns:xlink="http://www.w3.org/1999/xlink" viewBox="0 0 90 90"><defs><style>.cls-1{fill:none;}.cls-2{fill:#e8c1e1;}.cls-3{fill:#fff948;}.cls-4{fill:#595757;}.cls-5{fill:url(#_規パターン_4);}.cls-6{fill:url(#_規パターン_2);}</style><pattern id="_規パターン_4" x="0" y="0" width="160" height="160" patternTransform="translate(-20935.43 -4722.52) scale(.14)" patternUnits="userSpaceOnUse" viewBox="0 0 160 160"><g><rect class="cls-1" width="160" height="160"/><g><rect class="cls-1" width="160" height="160"/><g><rect class="cls-1" width="160" height="160"/><circle class="cls-2" cx="160" cy="120" r="25"/><circle class="cls-2" cx="80" cy="160" r="25"/><circle class="cls-2" cy="120" r="25"/><circle class="cls-2" cx="160" cy="40" r="25"/><circle class="cls-2" cx="80" cy="80" r="25"/><circle class="cls-2" cy="40" r="25"/><circle class="cls-2" cx="80" r="25"/></g></g></g></pattern><pattern id="_規パターン_2" x="0" y="0" width="140" height="140" patternTransform="translate(-20746.01 -4751.97) scale(.14)" patternUnits="userSpaceOnUse" viewBox="0 0 140 140"><g><rect class="cls-1" width="140" height="140"/><g><rect class="cls-1" width="140" height="140"/><g><rect class="cls-1" width="140" height="140"/><circle class="cls-3" cx="140" cy="105" r="25"/><circle class="cls-3" cx="70" cy="140" r="25"/><circle class="cls-3" cy="105" r="25"/><circle class="cls-3" cx="140" cy="35" r="25"/><circle class="cls-3" cx="70" cy="70" r="25"/><circle class="cls-3" cy="35" r="25"/><circle class="cls-3" cx="70" r="25"/></g></g></g></pattern></defs><g id="_イヤー_2-2"><g id="_イヤー_1のコピー_3"><g id="dot"><rect id="dot1" class="cls-5" width="60" height="54.64"/></g><g id="dot-2"><rect id="dot2" class="cls-6" x="30" y="35.36" width="60" height="54.64"/></g><path class="cls-4" d="M76.81,35c-3.26-10.36-11.44-18.55-21.8-21.8V5h-20V13.2c-10.36,3.26-18.55,11.44-21.8,21.8H5v10c0,4.88,3.51,8.94,8.14,9.81,1.45,4.71,3.94,8.95,7.17,12.52l-10.31,17.67h7.72l7.65-13.11c2.95,2.16,6.25,3.87,9.82,4.97,.87,4.63,4.93,8.14,9.81,8.14s8.94-3.51,9.81-8.14c3.58-1.1,6.87-2.81,9.82-4.97l7.65,13.11h7.72l-10.31-17.67c3.23-3.56,5.72-7.81,7.17-12.52,4.63-.87,8.14-4.93,8.14-9.81v-10h-8.19Zm-21.8,34.71v-4.71h-20v4.71c-2.26-.91-4.35-2.14-6.26-3.61l10.37-17.77h11.78l10.37,17.77c-1.9,1.47-4,2.69-6.26,3.61Zm-.28-28.04h-19.44l-11.41,19.56c-1.73-2.25-3.1-4.78-4.05-7.51,3.08-1.71,5.18-4.95,5.18-8.71v-10h-4.71c2.88-7.1,8.72-12.66,16-15.18,1.71,3.08,4.95,5.18,8.71,5.18s7.01-2.11,8.71-5.18c7.28,2.52,13.12,8.08,16,15.18h-4.71v10c0,3.76,2.11,7.01,5.18,8.71-.95,2.73-2.32,5.26-4.05,7.51l-11.41-19.56Z"/></g></g></svg>