<?xml version="1.0" encoding="utf-8"?>
<!-- Generator: Adobe Illustrator 16.0.0, SVG Export Plug-In . SVG Version: 6.00 Build 0)  -->
<!DOCTYPE svg PUBLIC "-//W3C//DTD SVG 1.0//EN" "http://www.w3.org/TR/2001/REC-SVG-20010904/DTD/svg10.dtd">
<svg version="1.0" id="Layer_1" xmlns="http://www.w3.org/2000/svg" xmlns:xlink="http://www.w3.org/1999/xlink" x="0px" y="0px"
	 width="100px" height="100px" viewBox="0 0 100 100" enable-background="new 0 0 100 100" xml:space="preserve">
<path d="M81.804,40C78.548,29.636,70.364,21.452,60,18.197V10H40v8.197C29.636,21.455,21.452,29.636,18.196,40H10v10
	c0,4.883,3.509,8.938,8.138,9.812c1.452,4.713,3.942,8.955,7.168,12.522L15,90h7.718l7.646-13.108
	c2.949,2.158,6.25,3.87,9.824,4.971C41.062,86.491,45.117,90,50,90s8.938-3.509,9.812-8.138c3.577-1.101,6.875-2.81,9.824-4.968
	L77.282,90H85L74.694,72.334c3.226-3.564,5.716-7.81,7.168-12.522C86.491,58.938,90,54.883,90,50V40H81.804z M60,74.71V70H40v4.71
	c-2.259-0.914-4.355-2.139-6.257-3.606l10.365-17.771h11.783L66.26,71.104C64.355,72.571,62.259,73.796,60,74.71z M59.72,46.667
	H40.28L28.87,66.224c-1.729-2.249-3.105-4.778-4.053-7.513C27.894,57.005,30,53.763,30,50V40h-4.71
	c2.877-7.103,8.721-12.663,15.999-15.182C42.995,27.894,46.237,30,50,30s7.005-2.106,8.711-5.182
	c7.278,2.52,13.122,8.08,15.999,15.182H70v10c0,3.763,2.106,7.005,5.183,8.711c-0.947,2.734-2.324,5.264-4.053,7.513L59.72,46.667z"
	/>
</svg>
