<?xml version="1.0" encoding="utf-8"?>
<!-- Generator: Adobe Illustrator 16.0.0, SVG Export Plug-In . SVG Version: 6.00 Build 0)  -->
<!DOCTYPE svg PUBLIC "-//W3C//DTD SVG 1.0//EN" "http://www.w3.org/TR/2001/REC-SVG-20010904/DTD/svg10.dtd">
<svg version="1.0" id="Layer_1" xmlns="http://www.w3.org/2000/svg" xmlns:xlink="http://www.w3.org/1999/xlink" x="0px" y="0px"
	 width="100px" height="100px" viewBox="0 0 100 100" enable-background="new 0 0 100 100" xml:space="preserve">
<path d="M53.333,72.292V56.081c2.904-1.042,5.18-3.392,6.137-6.345c4.127,0.883,8.516-0.885,10.738-4.736
	c2.224-3.848,1.557-8.535-1.27-11.666c2.822-3.132,3.493-7.816,1.27-11.667c-2.22-3.848-6.614-5.612-10.738-4.733
	C58.167,12.924,54.443,10,50,10s-8.171,2.924-9.47,6.934c-4.124-0.879-8.519,0.886-10.738,4.733
	c-2.221,3.848-1.553,8.535,1.27,11.667c-2.822,3.135-3.49,7.818-1.27,11.666c2.22,3.848,6.614,5.612,10.738,4.736
	c0.957,2.953,3.232,5.303,6.137,6.345v16.211L20,45.625v3.334c0,7.363,2.988,14.029,7.813,18.854L50,90l22.188-22.188
	C77.012,62.988,80,56.322,80,48.959v-3.334L53.333,72.292z M59.88,23.783c1.595-0.925,3.633-0.378,4.554,1.217
	c0.921,1.596,0.374,3.633-1.221,4.558l-3.396,1.96c-0.426-2.305-1.65-4.301-3.362-5.762L59.88,23.783z M59.817,35.153l3.398,1.963
	c1.592,0.918,2.139,2.956,1.218,4.551c-0.918,1.595-2.959,2.142-4.554,1.224l-3.425-1.979
	C58.167,39.453,59.392,37.455,59.817,35.153z M46.667,20c0-1.842,1.49-3.333,3.333-3.333s3.333,1.491,3.333,3.333v3.945
	c-1.048-0.371-2.158-0.611-3.333-0.611s-2.285,0.24-3.333,0.611V20z M50,30c1.843,0,3.333,1.491,3.333,3.334
	c0,1.842-1.49,3.333-3.333,3.333s-3.333-1.491-3.333-3.333C46.667,31.491,48.157,30,50,30z M46.667,42.722
	c1.048,0.374,2.158,0.612,3.333,0.612s2.285-0.241,3.333-0.612v3.945C53.333,48.51,51.843,50,50,50s-3.333-1.49-3.333-3.333V42.722z
	 M35.566,25c0.918-1.595,2.959-2.142,4.558-1.217l3.418,1.973c-1.713,1.461-2.937,3.457-3.359,5.762l-3.396-1.96
	C35.195,28.633,34.648,26.596,35.566,25z M40.12,42.891c-1.595,0.918-3.636,0.371-4.554-1.224c-0.921-1.595-0.374-3.633,1.221-4.551
	l3.396-1.963c0.423,2.302,1.646,4.3,3.359,5.759L40.12,42.891z"/>
</svg>
