<?xml version="1.0" encoding="UTF-8"?><svg id="_イヤー_2" xmlns="http://www.w3.org/2000/svg" width="90" height="90" xmlns:xlink="http://www.w3.org/1999/xlink" viewBox="0 0 90 90"><defs><style>.cls-1{fill:none;}.cls-2{fill:#e8c1e1;}.cls-3{fill:#fff948;}.cls-4{fill:url(#_規パターン_4);}.cls-5{fill:url(#_規パターン_2);}</style><pattern id="_規パターン_4" x="0" y="0" width="160" height="160" patternTransform="translate(-13929.01 -2181.3) scale(.14 -.14)" patternUnits="userSpaceOnUse" viewBox="0 0 160 160"><g><rect class="cls-1" width="160" height="160"/><g><rect class="cls-1" width="160" height="160"/><circle class="cls-2" cx="160" cy="40" r="25"/><circle class="cls-2" cx="80" r="25"/><circle class="cls-2" cy="40" r="25"/><circle class="cls-2" cx="160" cy="120" r="25"/><circle class="cls-2" cx="80" cy="80" r="25"/><circle class="cls-2" cy="120" r="25"/><circle class="cls-2" cx="80" cy="160" r="25"/></g></g></pattern><pattern id="_規パターン_2" x="0" y="0" width="140" height="140" patternTransform="translate(-13739.59 -2151.85) scale(.14 -.14)" patternUnits="userSpaceOnUse" viewBox="0 0 140 140"><g><rect class="cls-1" width="140" height="140"/><g><rect class="cls-1" width="140" height="140"/><circle class="cls-3" cx="140" cy="35" r="25"/><circle class="cls-3" cx="70" r="25"/><circle class="cls-3" cy="35" r="25"/><circle class="cls-3" cx="140" cy="105" r="25"/><circle class="cls-3" cx="70" cy="70" r="25"/><circle class="cls-3" cy="105" r="25"/><circle class="cls-3" cx="70" cy="140" r="25"/></g></g></pattern></defs><g id="_イヤー_1のコピー_2"><g id="dot"><rect id="dot1" class="cls-4" width="60" height="54.64"/></g><g id="dot-2"><rect id="dot2" class="cls-5" x="30" y="35.36" width="60" height="54.64"/></g><path d="M48.33,67.29v-16.21c2.9-1.04,5.18-3.39,6.14-6.35,4.13,.88,8.52-.88,10.74-4.74,2.22-3.85,1.56-8.53-1.27-11.67,2.82-3.13,3.49-7.82,1.27-11.67-2.22-3.85-6.61-5.61-10.74-4.73-1.3-4.01-5.03-6.93-9.47-6.93s-8.17,2.92-9.47,6.93c-4.12-.88-8.52,.89-10.74,4.73-2.22,3.85-1.55,8.53,1.27,11.67-2.82,3.13-3.49,7.82-1.27,11.67,2.22,3.85,6.61,5.61,10.74,4.74,.96,2.95,3.23,5.3,6.14,6.35v16.21L15,40.62v3.33c0,7.36,2.99,14.03,7.81,18.85l22.19,22.19,22.19-22.19c4.82-4.82,7.81-11.49,7.81-18.85v-3.33l-26.67,26.67Zm6.55-48.51c1.6-.92,3.63-.38,4.55,1.22,.92,1.6,.37,3.63-1.22,4.56l-3.4,1.96c-.43-2.31-1.65-4.3-3.36-5.76l3.43-1.97Zm-.06,11.37l3.4,1.96c1.59,.92,2.14,2.96,1.22,4.55-.92,1.6-2.96,2.14-4.55,1.22l-3.42-1.98c1.71-1.46,2.94-3.46,3.36-5.76Zm-13.15-15.15c0-1.84,1.49-3.33,3.33-3.33s3.33,1.49,3.33,3.33v3.94c-1.05-.37-2.16-.61-3.33-.61s-2.28,.24-3.33,.61v-3.94Zm3.33,10c1.84,0,3.33,1.49,3.33,3.33s-1.49,3.33-3.33,3.33-3.33-1.49-3.33-3.33,1.49-3.33,3.33-3.33Zm-3.33,12.72c1.05,.37,2.16,.61,3.33,.61s2.28-.24,3.33-.61v3.94c0,1.84-1.49,3.33-3.33,3.33s-3.33-1.49-3.33-3.33v-3.94Zm-11.1-17.72c.92-1.59,2.96-2.14,4.56-1.22l3.42,1.97c-1.71,1.46-2.94,3.46-3.36,5.76l-3.4-1.96c-1.59-.93-2.14-2.96-1.22-4.56Zm4.55,17.89c-1.6,.92-3.64,.37-4.55-1.22-.92-1.6-.37-3.63,1.22-4.55l3.4-1.96c.42,2.3,1.65,4.3,3.36,5.76l-3.42,1.98Z"/></g></svg>