<?xml version="1.0" encoding="utf-8"?>
<!-- Generator: Adobe Illustrator 16.0.0, SVG Export Plug-In . SVG Version: 6.00 Build 0)  -->
<!DOCTYPE svg PUBLIC "-//W3C//DTD SVG 1.0//EN" "http://www.w3.org/TR/2001/REC-SVG-20010904/DTD/svg10.dtd">
<svg version="1.0" id="Layer_1" xmlns="http://www.w3.org/2000/svg" xmlns:xlink="http://www.w3.org/1999/xlink" x="0px" y="0px"
	 width="100px" height="100px" viewBox="0 0 100 100" enable-background="new 0 0 100 100" xml:space="preserve">
<path d="M90,11.615L50.808,50.808c-3.783,3.779-8.803,5.859-14.141,5.859c-11.029,0-20-8.972-20-20.001
	c0-7.383,4.031-13.828,10-17.295v27.295h6.666V16.967c1.088-0.184,2.195-0.301,3.334-0.301c1.129,0,2.24,0.115,3.333,0.297v29.703
	h6.667V19.361c1.49,0.867,2.891,1.914,4.141,3.164l9.427,9.428l4.714-4.713l-9.428-9.428C50.696,12.988,44.03,10,36.667,10
	C21.94,10,10,21.939,10,36.666V90h13.333V59.736c2.064,1.194,4.301,2.112,6.667,2.725V90h13.333V62.458
	c2.367-0.609,4.604-1.527,6.667-2.725V90h13.333V47.709L70,41.041V90h13.333V27.709L90,21.041V11.615z"/>
</svg>
