<?xml version="1.0" encoding="UTF-8"?><svg id="_イヤー_2" xmlns="http://www.w3.org/2000/svg" width="90" height="90" xmlns:xlink="http://www.w3.org/1999/xlink" viewBox="0 0 90 90"><defs><style>.cls-1{fill:none;}.cls-2{fill:#e8c1e1;}.cls-3{fill:#fff948;}.cls-4{fill:url(#_規パターン_4);}.cls-5{fill:url(#_規パターン_2);}</style><pattern id="_規パターン_4" x="0" y="0" width="160" height="160" patternTransform="translate(-13929.01 -2181.3) scale(.14 -.14)" patternUnits="userSpaceOnUse" viewBox="0 0 160 160"><g><rect class="cls-1" width="160" height="160"/><g><rect class="cls-1" width="160" height="160"/><circle class="cls-2" cx="160" cy="40" r="25"/><circle class="cls-2" cx="80" r="25"/><circle class="cls-2" cy="40" r="25"/><circle class="cls-2" cx="160" cy="120" r="25"/><circle class="cls-2" cx="80" cy="80" r="25"/><circle class="cls-2" cy="120" r="25"/><circle class="cls-2" cx="80" cy="160" r="25"/></g></g></pattern><pattern id="_規パターン_2" x="0" y="0" width="140" height="140" patternTransform="translate(-13739.59 -2151.85) scale(.14 -.14)" patternUnits="userSpaceOnUse" viewBox="0 0 140 140"><g><rect class="cls-1" width="140" height="140"/><g><rect class="cls-1" width="140" height="140"/><circle class="cls-3" cx="140" cy="35" r="25"/><circle class="cls-3" cx="70" r="25"/><circle class="cls-3" cy="35" r="25"/><circle class="cls-3" cx="140" cy="105" r="25"/><circle class="cls-3" cx="70" cy="70" r="25"/><circle class="cls-3" cy="105" r="25"/><circle class="cls-3" cx="70" cy="140" r="25"/></g></g></pattern></defs><g id="_イヤー_1のコピー"><g id="dot"><rect id="dot1" class="cls-4" width="60" height="54.64"/></g><g id="dot-2"><rect id="dot2" class="cls-5" x="30" y="35.36" width="60" height="54.64"/></g><path d="M85,6.61L45.81,45.81c-3.78,3.78-8.8,5.86-14.14,5.86-11.03,0-20-8.97-20-20,0-7.38,4.03-13.83,10-17.3v27.3h6.67V11.97c1.09-.18,2.19-.3,3.33-.3s2.24,.11,3.33,.3v29.7h6.67V14.36c1.49,.87,2.89,1.91,4.14,3.16l9.43,9.43,4.71-4.71-9.43-9.43c-4.82-4.82-11.49-7.81-18.85-7.81-14.73,0-26.67,11.94-26.67,26.67v53.33h13.33v-30.26c2.06,1.19,4.3,2.11,6.67,2.72v27.54h13.33v-27.54c2.37-.61,4.6-1.53,6.67-2.72v30.27h13.33V42.71l6.67-6.67v48.96h13.33V22.71l6.67-6.67V6.61Z"/></g></svg>