<?xml version="1.0" encoding="UTF-8"?><svg id="_イヤー_2" xmlns="http://www.w3.org/2000/svg" width="90" height="90" xmlns:xlink="http://www.w3.org/1999/xlink" viewBox="0 0 90 90"><defs><style>.cls-1{fill:none;}.cls-2{fill:#e8c1e1;}.cls-3{fill:#fff948;}.cls-4{fill:#231f20;}.cls-5{fill:url(#_規パターン_4);}.cls-6{fill:url(#_規パターン_2);}</style><pattern id="_規パターン_4" x="0" y="0" width="160" height="160" patternTransform="translate(-13929.01 -2181.3) scale(.14 -.14)" patternUnits="userSpaceOnUse" viewBox="0 0 160 160"><g><rect class="cls-1" width="160" height="160"/><g><rect class="cls-1" width="160" height="160"/><circle class="cls-2" cx="160" cy="40" r="25"/><circle class="cls-2" cx="80" r="25"/><circle class="cls-2" cy="40" r="25"/><circle class="cls-2" cx="160" cy="120" r="25"/><circle class="cls-2" cx="80" cy="80" r="25"/><circle class="cls-2" cy="120" r="25"/><circle class="cls-2" cx="80" cy="160" r="25"/></g></g></pattern><pattern id="_規パターン_2" x="0" y="0" width="140" height="140" patternTransform="translate(-13739.59 -2151.85) scale(.14 -.14)" patternUnits="userSpaceOnUse" viewBox="0 0 140 140"><g><rect class="cls-1" width="140" height="140"/><g><rect class="cls-1" width="140" height="140"/><circle class="cls-3" cx="140" cy="35" r="25"/><circle class="cls-3" cx="70" r="25"/><circle class="cls-3" cy="35" r="25"/><circle class="cls-3" cx="140" cy="105" r="25"/><circle class="cls-3" cx="70" cy="70" r="25"/><circle class="cls-3" cy="105" r="25"/><circle class="cls-3" cx="70" cy="140" r="25"/></g></g></pattern></defs><g id="_イヤー_1-2"><g id="dot"><rect id="dot1" class="cls-5" width="60" height="54.64"/></g><g id="dot-2"><rect id="dot2" class="cls-6" x="30" y="35.36" width="60" height="54.64"/></g><g id="train"><path class="cls-4" d="M76.17,80.96l-2.06-4.54c1.36-.26,2.34-1.47,2.31-2.86,0-1.58-1.28-2.86-2.86-2.86h-1.94l-1.29-2.86h.37c1.58,0,2.86-1.28,2.86-2.86s-1.28-2.86-2.86-2.86h-2.86l-1.31-2.86c4.06-.53,7.08-4.02,7.03-8.11V16.6c0-.09,0,0,0,0,.01-.14,.01-.29,0-.43-.35-6.28-5.56-11.19-11.86-11.17h-16.71c-1.58,0-2.86,1.28-2.86,2.86s1.28,2.86,2.86,2.86h16.71c2.1,0,4.05,1.08,5.17,2.86H23.12c1.12-1.78,3.07-2.86,5.17-2.86h5.28c1.58,0,2.86-1.28,2.86-2.86s-1.28-2.86-2.86-2.86h-5.28c-6.23-.03-11.42,4.78-11.86,11-.01,.14-.01,.29,0,.43h0V50.99c-.14,4.18,2.94,7.77,7.08,8.28l-1.37,2.86h-2.86c-1.58,0-2.86,1.28-2.86,2.86s1.28,2.86,2.86,2.86h.37l-1.29,2.86h-1.94c-1.58,0-2.86,1.28-2.86,2.86-.03,1.39,.95,2.59,2.31,2.86l-2.06,4.66c-.64,1.44,0,3.12,1.43,3.77,.38,.13,.78,.18,1.17,.14,1.12,0,2.14-.66,2.6-1.69l3.11-6.88h45.71l3.06,6.88c.47,1.04,1.51,1.71,2.66,1.69,.4,0,.8-.09,1.17-.26,1.43-.65,2.07-2.34,1.43-3.77ZM22.15,51.17v-9.03H59.28c1.58,0,2.86-1.28,2.86-2.86s-1.28-2.86-2.86-2.86H22.15V19.28h45.71v31.88c.02,1.31-1.03,2.38-2.34,2.4-.02,0-.04,0-.06,0H24.55c-1.33,0-2.4-1.07-2.4-2.4h0Zm7.57,8.11h30.57l1.26,2.86H28.46l1.26-2.86Zm-5.09,11.43l1.29-2.86h38.17l1.29,2.86H24.63Z"/><path class="cls-4" d="M30.72,50.71c1.58,0,2.86-1.28,2.86-2.86s-1.28-2.86-2.86-2.86h0c-1.58,0-2.86,1.28-2.86,2.86s1.28,2.86,2.86,2.86Z"/><path class="cls-4" d="M59.28,50.71c1.58,0,2.86-1.28,2.86-2.86s-1.28-2.86-2.86-2.86h0c-1.58,0-2.86,1.28-2.86,2.86s1.28,2.86,2.86,2.86Z"/></g></g></svg>