<?xml version="1.0" encoding="UTF-8"?><svg id="_イヤー_2" xmlns="http://www.w3.org/2000/svg" width="773.28" height="122.43" xmlns:xlink="http://www.w3.org/1999/xlink" viewBox="0 0 773.28 122.43"><defs><style>.cls-1{fill:none;}.cls-2{clip-path:url(#clippath);}.cls-3{fill:#f6a1a1;}.cls-4{fill:#fff;}.cls-5{clip-path:url(#clippath-1);}</style><clipPath id="clippath"><path class="cls-1" d="M436.92,87.59c58.64,0,63.58-60.49,105.56-60.49,52.6,0,73.46,63.58,96.3,63.58l-201.85-3.09Z"/></clipPath><clipPath id="clippath-1"><path class="cls-1" d="M85.27,87.49c89.26-15.44,84.98-32.49,122.82-35.57,44.74-3.65,123.27,59.37,146.11,59.37L85.27,87.49Z"/></clipPath></defs><g id="_イヤー_1-2"><g class="cls-2"><g><rect class="cls-3" x="613.08" y="22.78" width="2" height="66.67"/><rect class="cls-3" x="464.7" y="79.8" width="158.02" height="2"/><rect class="cls-3" x="464.7" y="71.78" width="158.02" height="2"/><rect class="cls-3" x="464.7" y="63.75" width="158.02" height="2"/><rect class="cls-3" x="464.7" y="55.73" width="158.02" height="2"/><rect class="cls-3" x="464.7" y="47.7" width="158.02" height="2"/><rect class="cls-3" x="464.7" y="39.67" width="158.02" height="2"/><rect class="cls-3" x="464.7" y="31.65" width="158.02" height="2"/><rect class="cls-3" x="464.7" y="23.62" width="158.02" height="2"/><rect class="cls-3" x="606.29" y="22.78" width="2" height="66.67"/><rect class="cls-3" x="599.5" y="22.78" width="2" height="66.67"/><rect class="cls-3" x="592.71" y="22.78" width="2" height="66.67"/><rect class="cls-3" x="585.92" y="22.78" width="2" height="66.67"/><rect class="cls-3" x="579.13" y="22.78" width="2" height="66.67"/><rect class="cls-3" x="572.34" y="22.78" width="2" height="66.67"/><rect class="cls-3" x="565.55" y="22.78" width="2" height="66.67"/><rect class="cls-3" x="558.76" y="22.78" width="2" height="66.67"/><rect class="cls-3" x="551.97" y="22.78" width="2" height="66.67"/><rect class="cls-3" x="545.18" y="22.78" width="2" height="66.67"/><rect class="cls-3" x="538.39" y="22.78" width="2" height="66.67"/><rect class="cls-3" x="531.6" y="22.78" width="2" height="66.67"/><rect class="cls-3" x="524.81" y="22.78" width="2" height="66.67"/><rect class="cls-3" x="518.02" y="22.78" width="2" height="66.67"/><rect class="cls-3" x="511.23" y="22.78" width="2" height="66.67"/><rect class="cls-3" x="504.44" y="22.78" width="2" height="66.67"/><rect class="cls-3" x="497.65" y="22.78" width="2" height="66.67"/><rect class="cls-3" x="490.86" y="22.78" width="2" height="66.67"/><rect class="cls-3" x="484.07" y="22.78" width="2" height="66.67"/><rect class="cls-3" x="477.28" y="22.78" width="2" height="66.67"/><rect class="cls-3" x="470.49" y="22.78" width="2" height="66.67"/><rect class="cls-3" x="463.7" y="22.78" width="2" height="66.67"/></g></g><g class="cls-5"><g><rect class="cls-3" x="278.69" y="47.6" width="2" height="66.67"/><rect class="cls-3" x="130.31" y="104.63" width="158.02" height="2"/><rect class="cls-3" x="130.31" y="96.6" width="158.02" height="2"/><rect class="cls-3" x="130.31" y="88.58" width="158.02" height="2"/><rect class="cls-3" x="130.31" y="80.55" width="165.03" height="2"/><rect class="cls-3" x="130.31" y="72.53" width="158.02" height="2"/><rect class="cls-3" x="130.31" y="64.5" width="158.02" height="2"/><rect class="cls-3" x="130.31" y="56.47" width="158.02" height="2"/><rect class="cls-3" x="130.31" y="48.45" width="158.02" height="2"/><rect class="cls-3" x="271.9" y="47.6" width="2" height="66.67"/><rect class="cls-3" x="265.11" y="47.6" width="2" height="66.67"/><rect class="cls-3" x="258.32" y="47.6" width="2" height="66.67"/><rect class="cls-3" x="251.53" y="47.6" width="2" height="66.67"/><rect class="cls-3" x="244.74" y="47.6" width="2" height="66.67"/><rect class="cls-3" x="237.95" y="47.6" width="2" height="66.67"/><rect class="cls-3" x="231.16" y="47.6" width="2" height="66.67"/><rect class="cls-3" x="224.37" y="47.6" width="2" height="66.67"/><rect class="cls-3" x="217.58" y="47.6" width="2" height="66.67"/><rect class="cls-3" x="210.79" y="47.6" width="2" height="66.67"/><rect class="cls-3" x="204" y="47.6" width="2" height="66.67"/><rect class="cls-3" x="197.21" y="47.6" width="2" height="66.67"/><rect class="cls-3" x="190.42" y="47.6" width="2" height="66.67"/><rect class="cls-3" x="183.63" y="47.6" width="2" height="66.67"/><rect class="cls-3" x="176.84" y="47.6" width="2" height="66.67"/><rect class="cls-3" x="170.05" y="47.6" width="2" height="66.67"/><rect class="cls-3" x="163.26" y="47.6" width="2" height="66.67"/><rect class="cls-3" x="156.47" y="47.6" width="2" height="66.67"/><rect class="cls-3" x="149.68" y="47.6" width="2" height="66.67"/><rect class="cls-3" x="142.89" y="47.6" width="2" height="66.67"/><rect class="cls-3" x="136.1" y="47.6" width="2" height="66.67"/><rect class="cls-3" x="129.31" y="47.6" width="2" height="66.67"/><rect class="cls-3" x="121.93" y="47.6" width="2" height="66.67"/><rect class="cls-3" x="114.54" y="47.6" width="2" height="66.67"/><rect class="cls-3" x="107.16" y="47.6" width="2" height="66.67"/><rect class="cls-3" x="99.78" y="47.6" width="2" height="66.67"/></g></g><rect class="cls-3" y="86.95" width="773.28" height="35.48"/><path class="cls-3" d="M639.45,93.95v-5c-7.94,0-16.65-9.98-26.74-21.54-16.66-19.08-37.39-42.82-70.23-42.82-20.35,0-32.31,13.26-44.96,27.3-14.72,16.32-29.94,33.2-60.59,33.2s-47.99-8.84-48.15-8.93l-2.47,4.35c.69,.39,17.22,9.59,50.62,9.59s49.57-18.51,64.3-34.85c12.41-13.76,23.13-25.65,41.25-25.65,30.57,0,50.47,22.79,66.46,41.1,11.34,12.99,20.3,23.25,30.51,23.25Z"/><path class="cls-3" d="M639.9,93.72v-5c-7.94,0-16.73-9.95-26.91-21.47-16.79-19-37.68-42.66-70.51-42.66-20.35,0-32.31,13.26-44.96,27.3-14.72,16.32-29.94,33.2-60.59,33.2s-47.99-8.84-48.15-8.93l-2.47,4.35c.69,.39,17.22,9.59,50.62,9.59s49.57-18.51,64.3-34.85c12.41-13.76,23.13-25.65,41.25-25.65,30.58,0,50.64,22.71,66.77,40.97,11.43,12.94,20.46,23.16,30.66,23.16Z"/><path class="cls-3" d="M370.08,55.41c0-14.98,12.19-27.17,27.17-27.17s27.17,12.19,27.17,27.17-12.19,27.17-27.17,27.17-27.17-12.19-27.17-27.17Zm5,0c0,12.23,9.95,22.17,22.17,22.17s22.17-9.95,22.17-22.17-9.95-22.17-22.17-22.17-22.17,9.95-22.17,22.17Z"/><path class="cls-3" d="M40,92.55c23.41,0,71.73-5.55,98.93-12.71,16.98-4.47,27.91-9.92,37.55-14.72,11.8-5.88,21.12-10.52,36.76-10.52,12.91,0,30.5,7.76,49.11,15.98,22.31,9.85,45.35,20.03,64.88,19.15,38.63-1.75,70.14-7.12,70.45-7.18l-.85-4.93c-.31,.05-31.52,5.37-69.83,7.11-18.33,.83-40.85-9.11-62.63-18.73-19.11-8.44-37.16-16.41-51.13-16.41-16.82,0-27.1,5.12-38.99,11.05-9.43,4.7-20.12,10.03-36.6,14.36-26.85,7.07-74.54,12.55-97.66,12.55v5Z"/><path class="cls-3" d="M237.9,39.09c0-18.39,14.96-33.34,33.34-33.34s33.33,14.96,33.33,33.34-14.95,33.33-33.33,33.33-33.34-14.95-33.34-33.33Zm2,0c0,17.27,14.06,31.33,31.34,31.33s31.33-14.05,31.33-31.33-14.05-31.34-31.33-31.34-31.34,14.06-31.34,31.34Z"/><g><polygon class="cls-3" points="279.65 88.53 271.16 88.53 271.19 39.08 279.65 88.53"/><polyline class="cls-3" points="271.46 88.53 262.67 88.53 271.13 39.08"/></g><g><path class="cls-4" d="M271.84,7.35V1.24c3.24,.29,5.82,2.87,6.11,6.11h-6.11Z"/><path class="cls-4" d="M264.52,7.35c.29-3.24,2.87-5.82,6.11-6.11V7.35h-6.11Z"/><path class="cls-3" d="M263.29,7.35v.6c0,4.39,3.57,7.95,7.95,7.95s7.95-3.57,7.95-7.95v-.6h-.02c-.31-4.1-3.75-7.35-7.93-7.35s-7.62,3.24-7.93,7.35h-.02Zm14.67,0h-6.11V1.24c3.24,.29,5.82,2.87,6.11,6.11Zm-7.32-6.11V7.35h-6.11c.29-3.24,2.87-5.82,6.11-6.11Z"/></g><g><path class="cls-4" d="M294.25,16.63v-6.11c3.24,.29,5.82,2.87,6.11,6.11h-6.11Z"/><path class="cls-4" d="M286.93,16.63c.29-3.24,2.87-5.82,6.11-6.11v6.11h-6.11Z"/><path class="cls-3" d="M285.69,16.63v.6c0,4.38,3.57,7.95,7.95,7.95s7.95-3.57,7.95-7.95v-.6h-.02c-.31-4.1-3.75-7.35-7.93-7.35s-7.62,3.25-7.93,7.35h-.02Zm14.67,0h-6.11v-6.11c3.24,.29,5.82,2.87,6.11,6.11Zm-7.32-6.11v6.11h-6.11c.29-3.24,2.87-5.82,6.11-6.11Z"/></g><g><path class="cls-4" d="M303.53,39.03v-6.11c3.24,.29,5.82,2.88,6.11,6.11h-6.11Z"/><path class="cls-4" d="M296.21,39.03c.29-3.24,2.87-5.82,6.11-6.11v6.11h-6.11Z"/></g><path class="cls-4" d="M286.93,61.43c.29-3.24,2.87-5.82,6.11-6.11v6.11h-6.11Z"/><g><path class="cls-4" d="M271.84,70.71v-6.11c3.24,.29,5.82,2.87,6.11,6.11h-6.11Z"/><path class="cls-4" d="M264.53,70.71c.29-3.24,2.87-5.82,6.11-6.11v6.11h-6.11Z"/><path class="cls-3" d="M263.29,70.71v.61c0,4.38,3.57,7.95,7.95,7.95,4.39,0,7.95-3.57,7.95-7.95v-.61h-.03c-.31-4.1-3.75-7.35-7.93-7.35s-7.62,3.24-7.93,7.35h-.03Zm14.67,0h-6.11v-6.11c3.24,.29,5.82,2.87,6.11,6.11Zm-7.32-6.11v6.11h-6.11c.29-3.24,2.87-5.82,6.11-6.11Z"/></g><g><path class="cls-4" d="M240.16,39.03v-6.11c3.24,.29,5.82,2.88,6.11,6.11h-6.11Z"/><path class="cls-4" d="M232.84,39.03c.29-3.24,2.87-5.82,6.11-6.11v6.11h-6.11Z"/><path class="cls-3" d="M231.6,39.03v.61c0,4.38,3.57,7.95,7.96,7.95,4.38,0,7.95-3.57,7.95-7.95v-.61h-.02c-.31-4.1-3.75-7.35-7.93-7.35-4.18,0-7.62,3.24-7.93,7.35h-.03Zm14.67,0h-6.11v-6.11c3.24,.29,5.82,2.88,6.11,6.11Zm-7.32-6.11v6.11h-6.11c.29-3.24,2.87-5.82,6.11-6.11Z"/></g><g><path class="cls-4" d="M249.44,16.63v-6.11c3.24,.29,5.82,2.88,6.11,6.11h-6.11Z"/><path class="cls-4" d="M242.12,16.63c.29-3.24,2.87-5.82,6.11-6.11v6.11h-6.11Z"/><path class="cls-3" d="M240.88,16.63v.6c0,4.38,3.57,7.95,7.96,7.95,4.38,0,7.95-3.57,7.95-7.95v-.61h-.02c-.31-4.1-3.75-7.35-7.93-7.35s-7.62,3.25-7.93,7.35h-.03Zm14.67,0h-6.11v-6.11c3.24,.29,5.82,2.88,6.11,6.11Zm-7.32-6.11v6.11h-6.11c.29-3.24,2.87-5.82,6.11-6.11Z"/></g><path class="cls-3" d="M267.2,39.09c0,2.23,1.81,4.04,4.04,4.04h0c2.23,0,4.04-1.81,4.04-4.04h0c0-2.23-1.81-4.04-4.04-4.04h0c-2.23,0-4.04,1.81-4.04,4.04h0Z"/><path class="cls-3" d="M248.51,39.09c0-12.53,10.2-22.73,22.73-22.73s22.72,10.2,22.72,22.73-10.19,22.72-22.72,22.72-22.73-10.19-22.73-22.72Zm1.8,0c0,11.54,9.39,20.92,20.93,20.92s20.92-9.38,20.92-20.92-9.38-20.93-20.92-20.93-20.93,9.39-20.93,20.93Z"/><rect class="cls-3" x="270.59" y="7.59" width="1.5" height="30.92"/><rect class="cls-3" x="267.19" y="27.07" width="30.92" height="1.5" transform="translate(63.12 208.01) rotate(-45)"/><rect class="cls-3" x="271.82" y="38.44" width="30.92" height="1.5"/><rect class="cls-3" x="281.76" y="35.04" width="1.5" height="30.92" transform="translate(47.03 214.54) rotate(-45)"/><rect class="cls-3" x="270.39" y="39.66" width="1.5" height="30.92"/><rect class="cls-3" x="244.37" y="49.6" width="30.92" height="1.5" transform="translate(40.5 198.48) rotate(-45)"/><rect class="cls-3" x="239.74" y="38.23" width="30.92" height="1.5"/><rect class="cls-3" x="259.22" y="12.21" width="1.5" height="30.92" transform="translate(56.58 191.93) rotate(-45)"/><rect class="cls-3" x="488.11" y="48.36" width="14.22" height="3.79" transform="translate(128.14 386.44) rotate(-48.28)"/><path class="cls-3" d="M498.27,48.65c.78,.7,1.98,.63,2.68-.15,.7-.78,.63-1.98-.15-2.68-.78-.7-1.98-.63-2.68,.15-.7,.78-.63,1.98,.15,2.68Z"/><path class="cls-3" d="M491.5,56.24c.78,.7,1.98,.63,2.68-.15,.7-.78,.63-1.98-.15-2.68-.78-.7-1.98-.63-2.68,.15-.7,.78-.63,1.98,.16,2.68Z"/><g><rect class="cls-3" x="478.08" y="59.31" width="14.22" height="3.79" transform="translate(102.6 365.81) rotate(-45.71)"/><path class="cls-3" d="M488.31,59.73c.75,.73,1.95,.71,2.68-.03,.73-.75,.72-1.95-.03-2.68-.75-.73-1.95-.71-2.68,.03-.73,.75-.72,1.95,.04,2.68Z"/><path class="cls-3" d="M481.21,67.02c.75,.73,1.95,.72,2.68-.04,.73-.75,.72-1.95-.03-2.68-.75-.73-1.95-.72-2.68,.03-.73,.75-.72,1.95,.04,2.68Z"/></g><g><polygon class="cls-3" points="501.87 45.67 512.69 34.79 508.42 33.71 499.18 43 501.87 45.67"/><path class="cls-3" d="M501.38,45.18c.74,.74,1.94,.74,2.68,0,.74-.74,.73-1.94,0-2.68-.74-.74-1.95-.74-2.68,0-.74,.74-.74,1.95,0,2.68Z"/><path class="cls-3" d="M508.8,37.73c.74,.74,1.94,.74,2.68,0,.74-.74,.73-1.94,0-2.68-.74-.74-1.94-.73-2.68,0-.74,.74-.74,1.94,0,2.68Z"/></g><rect class="cls-3" x="291.8" y="80.78" width="2" height="10.74"/><rect class="cls-3" x="673.86" y="59.93" width="17.8" height="28.24"/><polygon class="cls-3" points="673.86 59.05 691.66 59.05 684.65 43.68 681.62 43.68 673.86 59.05"/><rect class="cls-4" x="685.18" y="62.57" width="3.7" height="5.25"/><rect class="cls-4" x="680.68" y="68.64" width="3.7" height="5.25"/><rect class="cls-4" x="676.19" y="68.64" width="3.7" height="5.25"/><rect class="cls-3" x="704.36" y="59.93" width="17.8" height="28.24"/><polygon class="cls-3" points="704.36 59.05 722.16 59.05 715.15 43.68 712.12 43.68 704.36 59.05"/><rect class="cls-4" x="715.68" y="62.57" width="3.7" height="5.25"/><rect class="cls-4" x="706.69" y="62.57" width="3.7" height="5.25"/><rect class="cls-4" x="706.69" y="68.64" width="3.7" height="5.25"/><rect class="cls-3" x="729.01" y="68.62" width="12.32" height="19.55"/><polygon class="cls-3" points="729.01 68.01 741.34 68.01 736.48 57.37 734.39 57.37 729.01 68.01"/><rect class="cls-4" x="736.85" y="70.45" width="2.56" height="3.63"/><rect class="cls-4" x="730.63" y="70.45" width="2.56" height="3.63"/><rect class="cls-4" x="736.85" y="74.65" width="2.56" height="3.63"/><rect class="cls-4" x="730.63" y="74.65" width="2.56" height="3.63"/><rect class="cls-3" x="691.66" y="67.37" width="13.11" height="20.79"/><polygon class="cls-3" points="691.66 66.73 704.77 66.73 699.61 55.41 697.38 55.41 691.66 66.73"/><rect class="cls-4" x="700" y="69.32" width="2.73" height="3.86"/><rect class="cls-4" x="693.38" y="69.32" width="2.73" height="3.86"/><rect class="cls-4" x="700" y="73.79" width="2.73" height="3.86"/><rect class="cls-4" x="696.69" y="73.79" width="2.73" height="3.86"/><rect class="cls-3" x="311.53" y="65.14" width="14.51" height="23.02"/><polygon class="cls-3" points="311.53 64.43 326.04 64.43 320.33 51.9 317.86 51.9 311.53 64.43"/><rect class="cls-4" x="320.76" y="67.3" width="3.02" height="4.28"/><rect class="cls-4" x="317.09" y="72.25" width="3.02" height="4.28"/><rect class="cls-4" x="313.43" y="72.25" width="3.02" height="4.28"/><rect class="cls-3" x="336.39" y="65.14" width="14.52" height="23.02"/><polygon class="cls-3" points="336.39 64.43 350.91 64.43 345.19 51.9 342.72 51.9 336.39 64.43"/><rect class="cls-4" x="345.62" y="67.3" width="3.02" height="4.28"/><rect class="cls-4" x="338.29" y="67.3" width="3.02" height="4.28"/><rect class="cls-4" x="345.62" y="72.25" width="3.02" height="4.28"/><rect class="cls-4" x="338.29" y="72.25" width="3.02" height="4.28"/><rect class="cls-3" x="326.05" y="71.21" width="10.69" height="16.95"/><polygon class="cls-3" points="326.05 70.69 336.73 70.69 332.52 61.46 330.7 61.46 326.05 70.69"/><rect class="cls-4" x="332.84" y="72.8" width="2.22" height="3.15"/><rect class="cls-4" x="327.44" y="72.8" width="2.22" height="3.15"/><rect class="cls-4" x="332.84" y="76.45" width="2.22" height="3.15"/><rect class="cls-4" x="330.14" y="76.45" width="2.22" height="3.15"/><rect class="cls-3" x="650.78" y="22.25" width="9.59" height="77.4"/><g><path class="cls-4" d="M249.44,61.43v-6.11c3.24,.29,5.82,2.87,6.11,6.11h-6.11Z"/><path class="cls-4" d="M242.12,61.43c.29-3.24,2.87-5.82,6.11-6.11v6.11h-6.11Z"/><path class="cls-3" d="M240.89,61.43v.61c0,4.38,3.57,7.95,7.95,7.95,4.39,0,7.95-3.57,7.95-7.95v-.61h-.02c-.31-4.1-3.75-7.35-7.93-7.35-4.18,0-7.62,3.24-7.93,7.35h-.03Zm14.67,0h-6.11v-6.11c3.24,.29,5.82,2.87,6.11,6.11Zm-7.32-6.11v6.11h-6.11c.29-3.24,2.87-5.82,6.11-6.11Z"/></g><path class="cls-3" d="M294.97,39.03v.61c0,4.38,3.57,7.95,7.95,7.95s7.95-3.57,7.95-7.95v-.61h-.02c-.31-4.1-3.75-7.35-7.93-7.35s-7.62,3.25-7.93,7.35h-.02Zm14.67,0h-6.11v-6.11c3.24,.29,5.82,2.88,6.11,6.11Zm-7.32-6.11v6.11h-6.11c.29-3.24,2.87-5.82,6.11-6.11Z"/><path class="cls-4" d="M294.25,61.43v-6.11c3.24,.29,5.82,2.87,6.11,6.11h-6.11Z"/><path class="cls-3" d="M285.69,61.43v.61c0,4.38,3.57,7.95,7.95,7.95,4.39,0,7.95-3.57,7.95-7.95v-.61h-.02c-.31-4.11-3.75-7.35-7.93-7.35-4.18,0-7.62,3.24-7.93,7.35h-.03Zm14.67,0h-6.11v-6.11c3.24,.29,5.82,2.87,6.11,6.11Zm-7.32-6.11v6.11h-6.11c.29-3.24,2.87-5.82,6.11-6.11Z"/><path class="cls-3" d="M633.65,23.96c0,2.08,10.12,3.77,22.6,3.77s22.6-1.69,22.6-3.77-10.12-3.77-22.6-3.77-22.6,1.69-22.6,3.77Z"/><g><line class="cls-3" x1="644.61" y1="26.36" x2="635.71" y2="52.38"/><rect class="cls-3" x="626.41" y="38.62" width="27.51" height="1.5" transform="translate(395.69 632.32) rotate(-71.11)"/></g><g><path class="cls-4" d="M632.38,53.01c0,1.73,1.4,3.13,3.13,3.13s3.13-1.4,3.13-3.13-1.4-3.13-3.13-3.13-3.13,1.4-3.13,3.13Z"/><path class="cls-3" d="M631.88,53.01c0-2,1.63-3.63,3.63-3.63s3.63,1.63,3.63,3.63-1.63,3.63-3.63,3.63-3.63-1.63-3.63-3.63Zm1,0c0,1.45,1.18,2.63,2.63,2.63s2.63-1.18,2.63-2.63-1.18-2.63-2.63-2.63-2.63,1.18-2.63,2.63Z"/></g><g><line class="cls-3" x1="667.55" y1="26.36" x2="676.46" y2="52.38"/><rect class="cls-3" x="671.25" y="25.62" width="1.5" height="27.51" transform="translate(23.51 219.9) rotate(-18.91)"/></g><g><path class="cls-4" d="M679.78,53.01c0,1.73-1.4,3.13-3.13,3.13s-3.13-1.4-3.13-3.13,1.4-3.13,3.13-3.13,3.13,1.4,3.13,3.13Z"/><path class="cls-3" d="M673.02,53.01c0-2,1.63-3.63,3.63-3.63s3.63,1.63,3.63,3.63-1.63,3.63-3.63,3.63-3.63-1.63-3.63-3.63Zm1,0c0,1.45,1.18,2.63,2.63,2.63s2.63-1.18,2.63-2.63-1.18-2.63-2.63-2.63-2.63,1.18-2.63,2.63Z"/></g><g><line class="cls-3" x1="660.2" y1="27.17" x2="667.52" y2="59.82"/><rect class="cls-3" x="663.11" y="26.77" width="1.5" height="33.46" transform="translate(6.56 146.28) rotate(-12.64)"/></g><g><path class="cls-4" d="M670.85,60.45c0,1.73-1.4,3.13-3.13,3.13s-3.13-1.4-3.13-3.13,1.4-3.13,3.13-3.13,3.13,1.4,3.13,3.13Z"/><path class="cls-3" d="M664.08,60.45c0-2,1.63-3.63,3.63-3.63s3.63,1.63,3.63,3.63-1.63,3.63-3.63,3.63-3.63-1.63-3.63-3.63Zm1,0c0,1.45,1.18,2.63,2.63,2.63s2.63-1.18,2.63-2.63-1.18-2.63-2.63-2.63-2.63,1.18-2.63,2.63Z"/></g><g><line class="cls-3" x1="651.15" y1="27.17" x2="643.82" y2="59.82"/><rect class="cls-3" x="630.76" y="42.75" width="33.46" height="1.5" transform="translate(463.24 665.74) rotate(-77.35)"/></g><g><path class="cls-4" d="M640.5,60.45c0,1.73,1.4,3.13,3.13,3.13s3.13-1.4,3.13-3.13-1.4-3.13-3.13-3.13-3.13,1.4-3.13,3.13Z"/><path class="cls-3" d="M640,60.45c0-2,1.63-3.63,3.63-3.63s3.63,1.63,3.63,3.63-1.63,3.63-3.63,3.63-3.63-1.63-3.63-3.63Zm1,0c0,1.45,1.18,2.63,2.63,2.63s2.63-1.18,2.63-2.63-1.18-2.63-2.63-2.63-2.63,1.18-2.63,2.63Z"/></g></g></svg>