<?xml version="1.0" encoding="utf-8"?>
<!-- Generator: Adobe Illustrator 26.3.1, SVG Export Plug-In . SVG Version: 6.00 Build 0)  -->
<svg version="1.1" id="_イヤー_2" xmlns="http://www.w3.org/2000/svg" xmlns:xlink="http://www.w3.org/1999/xlink" x="0px"
	 y="0px" viewBox="0 0 773.3 122.4" style="enable-background:new 0 0 773.3 122.4;" xml:space="preserve">
<style type="text/css">
	.st0{clip-path:url(#SVGID_00000042736647179549274040000009272415021564409777_);}
	.st1{fill:#F6A1A1;}
	.st2{clip-path:url(#SVGID_00000059278575058329215390000015127787667344891306_);}
	.st3{fill:#FFFFFF;}
	.st4{fill:none;}
</style>
<g id="_イヤー_1-2">
	<g>
		<defs>
			<path id="SVGID_1_" d="M336.4,87.6c-58.6,0-63.6-60.5-105.6-60.5c-52.6,0-73.5,63.6-96.3,63.6L336.4,87.6L336.4,87.6z"/>
		</defs>
		<clipPath id="SVGID_00000041275853903060854830000003544918717712432528_">
			<use xlink:href="#SVGID_1_"  style="overflow:visible;"/>
		</clipPath>
		<g style="clip-path:url(#SVGID_00000041275853903060854830000003544918717712432528_);">
			<g>
				<rect x="158.2" y="22.8" class="st1" width="2" height="66.7"/>
				<rect x="150.6" y="79.8" class="st1" width="158" height="2"/>
				<rect x="150.6" y="71.8" class="st1" width="158" height="2"/>
				<rect x="150.6" y="63.8" class="st1" width="158" height="2"/>
				<rect x="150.6" y="55.7" class="st1" width="158" height="2"/>
				<rect x="150.6" y="47.7" class="st1" width="158" height="2"/>
				<rect x="150.6" y="39.7" class="st1" width="158" height="2"/>
				<rect x="150.6" y="31.6" class="st1" width="158" height="2"/>
				<rect x="150.6" y="23.6" class="st1" width="158" height="2"/>
				<rect x="165" y="22.8" class="st1" width="2" height="66.7"/>
				<rect x="171.8" y="22.8" class="st1" width="2" height="66.7"/>
				<rect x="178.6" y="22.8" class="st1" width="2" height="66.7"/>
				<rect x="185.4" y="22.8" class="st1" width="2" height="66.7"/>
				<rect x="192.2" y="22.8" class="st1" width="2" height="66.7"/>
				<rect x="198.9" y="22.8" class="st1" width="2" height="66.7"/>
				<rect x="205.7" y="22.8" class="st1" width="2" height="66.7"/>
				<rect x="212.5" y="22.8" class="st1" width="2" height="66.7"/>
				<rect x="219.3" y="22.8" class="st1" width="2" height="66.7"/>
				<rect x="226.1" y="22.8" class="st1" width="2" height="66.7"/>
				<rect x="232.9" y="22.8" class="st1" width="2" height="66.7"/>
				<rect x="239.7" y="22.8" class="st1" width="2" height="66.7"/>
				<rect x="246.5" y="22.8" class="st1" width="2" height="66.7"/>
				<rect x="253.3" y="22.8" class="st1" width="2" height="66.7"/>
				<rect x="260.1" y="22.8" class="st1" width="2" height="66.7"/>
				<rect x="266.8" y="22.8" class="st1" width="2" height="66.7"/>
				<rect x="273.6" y="22.8" class="st1" width="2" height="66.7"/>
				<rect x="280.4" y="22.8" class="st1" width="2" height="66.7"/>
				<rect x="287.2" y="22.8" class="st1" width="2" height="66.7"/>
				<rect x="294" y="22.8" class="st1" width="2" height="66.7"/>
				<rect x="300.8" y="22.8" class="st1" width="2" height="66.7"/>
				<rect x="307.6" y="22.8" class="st1" width="2" height="66.7"/>
			</g>
		</g>
	</g>
	<g>
		<defs>
			<path id="SVGID_00000048467751757938855580000007083624848859415172_" d="M688,87.5C598.8,72,603,55,565.2,51.9
				c-44.7-3.7-123.3,59.4-146.1,59.4L688,87.5z"/>
		</defs>
		<clipPath id="SVGID_00000016763465000007258370000015879588504500374679_">
			<use xlink:href="#SVGID_00000048467751757938855580000007083624848859415172_"  style="overflow:visible;"/>
		</clipPath>
		<g style="clip-path:url(#SVGID_00000016763465000007258370000015879588504500374679_);">
			<g>
				<rect x="492.6" y="47.6" class="st1" width="2" height="66.7"/>
				<rect x="485" y="104.6" class="st1" width="158" height="2"/>
				<rect x="485" y="96.6" class="st1" width="158" height="2"/>
				<rect x="485" y="88.6" class="st1" width="158" height="2"/>
				<rect x="477.9" y="80.6" class="st1" width="165" height="2"/>
				<rect x="485" y="72.5" class="st1" width="158" height="2"/>
				<rect x="485" y="64.5" class="st1" width="158" height="2"/>
				<rect x="485" y="56.5" class="st1" width="158" height="2"/>
				<rect x="485" y="48.5" class="st1" width="158" height="2"/>
				<rect x="499.4" y="47.6" class="st1" width="2" height="66.7"/>
				<rect x="506.2" y="47.6" class="st1" width="2" height="66.7"/>
				<rect x="513" y="47.6" class="st1" width="2" height="66.7"/>
				<rect x="519.8" y="47.6" class="st1" width="2" height="66.7"/>
				<rect x="526.5" y="47.6" class="st1" width="2" height="66.7"/>
				<rect x="533.3" y="47.6" class="st1" width="2" height="66.7"/>
				<rect x="540.1" y="47.6" class="st1" width="2" height="66.7"/>
				<rect x="546.9" y="47.6" class="st1" width="2" height="66.7"/>
				<rect x="553.7" y="47.6" class="st1" width="2" height="66.7"/>
				<rect x="560.5" y="47.6" class="st1" width="2" height="66.7"/>
				<rect x="567.3" y="47.6" class="st1" width="2" height="66.7"/>
				<rect x="574.1" y="47.6" class="st1" width="2" height="66.7"/>
				<rect x="580.9" y="47.6" class="st1" width="2" height="66.7"/>
				<rect x="587.7" y="47.6" class="st1" width="2" height="66.7"/>
				<rect x="594.4" y="47.6" class="st1" width="2" height="66.7"/>
				<rect x="601.2" y="47.6" class="st1" width="2" height="66.7"/>
				<rect x="608" y="47.6" class="st1" width="2" height="66.7"/>
				<rect x="614.8" y="47.6" class="st1" width="2" height="66.7"/>
				<rect x="621.6" y="47.6" class="st1" width="2" height="66.7"/>
				<rect x="628.4" y="47.6" class="st1" width="2" height="66.7"/>
				<rect x="635.2" y="47.6" class="st1" width="2" height="66.7"/>
				<rect x="642" y="47.6" class="st1" width="2" height="66.7"/>
				<rect x="649.4" y="47.6" class="st1" width="2" height="66.7"/>
				<rect x="656.7" y="47.6" class="st1" width="2" height="66.7"/>
				<rect x="664.1" y="47.6" class="st1" width="2" height="66.7"/>
				<rect x="671.5" y="47.6" class="st1" width="2" height="66.7"/>
			</g>
		</g>
	</g>
	<rect y="86.9" class="st1" width="773.3" height="35.5"/>
	<path class="st1" d="M133.8,93.9v-5c7.9,0,16.7-10,26.7-21.5c16.7-19.1,37.4-42.8,70.2-42.8c20.3,0,32.3,13.3,45,27.3
		c14.7,16.3,29.9,33.2,60.6,33.2s48-8.8,48.1-8.9l2.5,4.3c-0.7,0.4-17.2,9.6-50.6,9.6S286.8,71.6,272,55.2
		c-12.4-13.8-23.1-25.6-41.2-25.6c-30.6,0-50.5,22.8-66.5,41.1C153,83.7,144,93.9,133.8,93.9L133.8,93.9z"/>
	<path class="st1" d="M133.4,93.7v-5c7.9,0,16.7-9.9,26.9-21.5c16.8-19,37.7-42.7,70.5-42.7c20.3,0,32.3,13.3,45,27.3
		c14.7,16.3,29.9,33.2,60.6,33.2s48-8.8,48.1-8.9l2.5,4.3c-0.7,0.4-17.2,9.6-50.6,9.6S286.8,71.6,272,55.2
		c-12.4-13.8-23.1-25.6-41.2-25.6c-30.6,0-50.6,22.7-66.8,41C152.6,83.5,143.6,93.7,133.4,93.7L133.4,93.7z"/>
	<path class="st1" d="M403.2,55.4c0-15-12.2-27.2-27.2-27.2s-27.2,12.2-27.2,27.2s12.2,27.2,27.2,27.2S403.2,70.4,403.2,55.4z
		 M398.2,55.4c0,12.2-10,22.2-22.2,22.2s-22.2-9.9-22.2-22.2s10-22.2,22.2-22.2S398.2,43.2,398.2,55.4z"/>
	<path class="st1" d="M733.3,92.6c-23.4,0-71.7-5.6-98.9-12.7c-17-4.5-27.9-9.9-37.5-14.7C585,59.2,575.7,54.6,560,54.6
		c-12.9,0-30.5,7.8-49.1,16c-22.3,9.8-45.4,20-64.9,19.2c-38.6-1.8-70.1-7.1-70.5-7.2l0.9-4.9c0.3,0.1,31.5,5.4,69.8,7.1
		c18.3,0.8,40.9-9.1,62.6-18.7c19.1-8.4,37.2-16.4,51.1-16.4c16.8,0,27.1,5.1,39,11c9.4,4.7,20.1,10,36.6,14.4
		c26.9,7.1,74.5,12.6,97.7,12.6L733.3,92.6L733.3,92.6z"/>
	<path class="st1" d="M535.4,39.1c0-18.4-15-33.3-33.3-33.3s-33.3,15-33.3,33.3s15,33.3,33.3,33.3S535.4,57.5,535.4,39.1z
		 M533.4,39.1c0,17.3-14.1,31.3-31.3,31.3c-17.3,0-31.3-14-31.3-31.3s14-31.3,31.3-31.3C519.3,7.7,533.4,21.8,533.4,39.1z"/>
	<g>
		<polygon class="st1" points="493.6,88.5 502.1,88.5 502.1,39.1 		"/>
		<polyline class="st1" points="501.8,88.5 510.6,88.5 502.2,39.1 		"/>
	</g>
	<g>
		<path class="st3" d="M501.4,7.3V1.2c-3.2,0.3-5.8,2.9-6.1,6.1C495.3,7.4,501.4,7.4,501.4,7.3z"/>
		<path class="st3" d="M508.8,7.3c-0.3-3.2-2.9-5.8-6.1-6.1v6.1H508.8z"/>
		<path class="st1" d="M510,7.3v0.6c0,4.4-3.6,7.9-8,7.9s-8-3.6-8-7.9V7.3h0c0.3-4.1,3.8-7.3,7.9-7.3S509.7,3.2,510,7.3L510,7.3
			L510,7.3z M495.3,7.3h6.1V1.2C498.2,1.5,495.6,4.1,495.3,7.3z M502.6,1.2v6.1h6.1C508.5,4.1,505.9,1.5,502.6,1.2z"/>
	</g>
	<g>
		<path class="st3" d="M479,16.6v-6.1c-3.2,0.3-5.8,2.9-6.1,6.1H479z"/>
		<path class="st3" d="M486.4,16.6c-0.3-3.2-2.9-5.8-6.1-6.1v6.1H486.4z"/>
		<path class="st1" d="M487.6,16.6v0.6c0,4.4-3.6,8-8,8s-8-3.6-8-8v-0.6h0c0.3-4.1,3.8-7.4,7.9-7.4S487.3,12.5,487.6,16.6
			L487.6,16.6L487.6,16.6z M472.9,16.6h6.1v-6.1C475.8,10.8,473.2,13.4,472.9,16.6z M480.2,10.5v6.1h6.1
			C486.1,13.4,483.5,10.8,480.2,10.5z"/>
	</g>
	<g>
		<path class="st3" d="M469.8,39v-6.1c-3.2,0.3-5.8,2.9-6.1,6.1H469.8z"/>
		<path class="st3" d="M477.1,39c-0.3-3.2-2.9-5.8-6.1-6.1V39H477.1z"/>
	</g>
	<path class="st3" d="M486.4,61.4c-0.3-3.2-2.9-5.8-6.1-6.1v6.1H486.4z"/>
	<g>
		<path class="st3" d="M501.4,70.7v-6.1c-3.2,0.3-5.8,2.9-6.1,6.1H501.4z"/>
		<path class="st3" d="M508.8,70.7c-0.3-3.2-2.9-5.8-6.1-6.1v6.1H508.8z"/>
		<path class="st1" d="M510,70.7v0.6c0,4.4-3.6,7.9-8,7.9c-4.4,0-8-3.6-8-7.9v-0.6h0c0.3-4.1,3.8-7.3,7.9-7.3S509.7,66.6,510,70.7
			L510,70.7L510,70.7z M495.3,70.7h6.1v-6.1C498.2,64.9,495.6,67.5,495.3,70.7z M502.6,64.6v6.1h6.1
			C508.5,67.5,505.9,64.9,502.6,64.6z"/>
	</g>
	<g>
		<path class="st3" d="M533.1,39v-6.1c-3.2,0.3-5.8,2.9-6.1,6.1H533.1z"/>
		<path class="st3" d="M540.4,39c-0.3-3.2-2.9-5.8-6.1-6.1V39H540.4z"/>
		<path class="st1" d="M541.7,39v0.6c0,4.4-3.6,8-8,8c-4.4,0-8-3.6-8-8V39h0c0.3-4.1,3.8-7.4,7.9-7.4S541.3,34.9,541.7,39L541.7,39
			L541.7,39z M527,39h6.1v-6.1C529.9,33.2,527.3,35.8,527,39z M534.3,32.9V39h6.1C540.2,35.8,537.6,33.2,534.3,32.9z"/>
	</g>
	<g>
		<path class="st3" d="M523.8,16.6v-6.1c-3.2,0.3-5.8,2.9-6.1,6.1H523.8z"/>
		<path class="st3" d="M531.2,16.6c-0.3-3.2-2.9-5.8-6.1-6.1v6.1H531.2z"/>
		<path class="st1" d="M532.4,16.6v0.6c0,4.4-3.6,8-8,8c-4.4,0-8-3.6-8-8v-0.6h0c0.3-4.1,3.8-7.4,7.9-7.4S532.1,12.5,532.4,16.6
			L532.4,16.6L532.4,16.6z M517.7,16.6h6.1v-6.1C520.6,10.8,518,13.4,517.7,16.6z M525.1,10.5v6.1h6.1
			C530.9,13.4,528.3,10.8,525.1,10.5z"/>
	</g>
	<path class="st1" d="M506.1,39.1c0,2.2-1.8,4-4,4l0,0c-2.2,0-4-1.8-4-4l0,0c0-2.2,1.8-4,4-4l0,0C504.3,35,506.1,36.9,506.1,39.1
		L506.1,39.1z"/>
	<path class="st1" d="M524.8,39.1c0-12.5-10.2-22.7-22.7-22.7c-12.5,0-22.7,10.2-22.7,22.7s10.2,22.7,22.7,22.7
		C514.6,61.8,524.8,51.6,524.8,39.1z M523,39.1C523,50.6,513.6,60,502,60s-20.9-9.4-20.9-20.9s9.4-20.9,20.9-20.9
		C513.6,18.2,523,27.6,523,39.1z"/>
	<rect x="501.2" y="7.6" class="st1" width="1.5" height="30.9"/>
	
		<rect x="489.9" y="12.4" transform="matrix(0.7071 -0.7071 0.7071 0.7071 124.0303 355.0717)" class="st1" width="1.5" height="30.9"/>
	<rect x="470.5" y="38.4" class="st1" width="30.9" height="1.5"/>
	
		<rect x="475.3" y="49.7" transform="matrix(0.7071 -0.7071 0.7071 0.7071 108.0474 361.8178)" class="st1" width="30.9" height="1.5"/>
	<rect x="501.4" y="39.7" class="st1" width="1.5" height="30.9"/>
	
		<rect x="512.7" y="34.9" transform="matrix(0.7071 -0.7071 0.7071 0.7071 114.7794 377.8124)" class="st1" width="1.5" height="30.9"/>
	<rect x="502.6" y="38.2" class="st1" width="30.9" height="1.5"/>
	
		<rect x="497.8" y="26.9" transform="matrix(0.7071 -0.7071 0.7071 0.7071 130.7794 371.0675)" class="st1" width="30.9" height="1.5"/>
	
		<rect x="276.2" y="43.1" transform="matrix(0.7464 -0.6655 0.6655 0.7464 37.0753 197.7926)" class="st1" width="3.8" height="14.2"/>
	<path class="st1" d="M275,48.7c-0.8,0.7-2,0.6-2.7-0.2c-0.7-0.8-0.6-2,0.1-2.7s2-0.6,2.7,0.2C275.9,46.8,275.8,48,275,48.7z"/>
	<path class="st1" d="M281.8,56.2c-0.8,0.7-2,0.6-2.7-0.2c-0.7-0.8-0.6-2,0.1-2.7s2-0.6,2.7,0.2C282.6,54.3,282.6,55.5,281.8,56.2
		L281.8,56.2z"/>
	<g>
		
			<rect x="286.2" y="54.1" transform="matrix(0.7158 -0.6983 0.6983 0.7158 39.0986 218.5574)" class="st1" width="3.8" height="14.2"/>
		<path class="st1" d="M285,59.7c-0.8,0.7-2,0.7-2.7,0c-0.7-0.8-0.7-2,0-2.7s2-0.7,2.7,0C285.7,57.8,285.7,59,285,59.7L285,59.7z"/>
		<path class="st1" d="M292.1,67c-0.8,0.7-2,0.7-2.7,0c-0.7-0.8-0.7-1.9,0-2.7c0.8-0.7,2-0.7,2.7,0C292.8,65.1,292.8,66.3,292.1,67
			L292.1,67z"/>
	</g>
	<g>
		<polygon class="st1" points="271.4,45.7 260.6,34.8 264.9,33.7 274.1,43 		"/>
		<path class="st1" d="M271.9,45.2c-0.7,0.7-1.9,0.7-2.7,0s-0.7-1.9,0-2.7c0.7-0.7,2-0.7,2.7,0C272.6,43.2,272.6,44.5,271.9,45.2z"
			/>
		<path class="st1" d="M264.5,37.7c-0.7,0.7-1.9,0.7-2.7,0s-0.7-1.9,0-2.7c0.7-0.7,1.9-0.7,2.7,0C265.2,35.8,265.2,37,264.5,37.7z"
			/>
	</g>
	<rect x="479.5" y="80.8" class="st1" width="2" height="10.7"/>
	<rect x="81.6" y="59.9" class="st1" width="17.8" height="28.2"/>
	<polygon class="st1" points="99.4,59 81.6,59 88.6,43.7 91.7,43.7 	"/>
	<rect x="84.4" y="62.6" class="st3" width="3.7" height="5.2"/>
	<rect x="88.9" y="68.6" class="st3" width="3.7" height="5.2"/>
	<rect x="93.4" y="68.6" class="st3" width="3.7" height="5.2"/>
	<rect x="51.1" y="59.9" class="st1" width="17.8" height="28.2"/>
	<polygon class="st1" points="68.9,59 51.1,59 58.1,43.7 61.2,43.7 	"/>
	<rect x="53.9" y="62.6" class="st3" width="3.7" height="5.2"/>
	<rect x="62.9" y="62.6" class="st3" width="3.7" height="5.2"/>
	<rect x="62.9" y="68.6" class="st3" width="3.7" height="5.2"/>
	<rect x="32" y="68.6" class="st1" width="12.3" height="19.5"/>
	<polygon class="st1" points="44.3,68 31.9,68 36.8,57.4 38.9,57.4 	"/>
	<rect x="33.9" y="70.4" class="st3" width="2.6" height="3.6"/>
	<rect x="40.1" y="70.4" class="st3" width="2.6" height="3.6"/>
	<rect x="33.9" y="74.7" class="st3" width="2.6" height="3.6"/>
	<rect x="40.1" y="74.7" class="st3" width="2.6" height="3.6"/>
	<rect x="68.5" y="67.4" class="st1" width="13.1" height="20.8"/>
	<polygon class="st1" points="81.6,66.7 68.5,66.7 73.7,55.4 75.9,55.4 	"/>
	<rect x="70.6" y="69.3" class="st3" width="2.7" height="3.9"/>
	<rect x="77.2" y="69.3" class="st3" width="2.7" height="3.9"/>
	<rect x="70.6" y="73.8" class="st3" width="2.7" height="3.9"/>
	<rect x="73.9" y="73.8" class="st3" width="2.7" height="3.9"/>
	<rect x="447.2" y="65.1" class="st1" width="14.5" height="23"/>
	<polygon class="st1" points="461.8,64.4 447.2,64.4 453,51.9 455.4,51.9 	"/>
	<rect x="449.5" y="67.3" class="st3" width="3" height="4.3"/>
	<rect x="453.2" y="72.2" class="st3" width="3" height="4.3"/>
	<rect x="456.8" y="72.2" class="st3" width="3" height="4.3"/>
	<rect x="422.4" y="65.1" class="st1" width="14.5" height="23"/>
	<polygon class="st1" points="436.9,64.4 422.4,64.4 428.1,51.9 430.6,51.9 	"/>
	<rect x="424.6" y="67.3" class="st3" width="3" height="4.3"/>
	<rect x="432" y="67.3" class="st3" width="3" height="4.3"/>
	<rect x="424.6" y="72.2" class="st3" width="3" height="4.3"/>
	<rect x="432" y="72.2" class="st3" width="3" height="4.3"/>
	<rect x="436.5" y="71.2" class="st1" width="10.7" height="17"/>
	<polygon class="st1" points="447.2,70.7 436.6,70.7 440.8,61.5 442.6,61.5 	"/>
	<rect x="438.2" y="72.8" class="st3" width="2.2" height="3.2"/>
	<rect x="443.6" y="72.8" class="st3" width="2.2" height="3.2"/>
	<rect x="438.2" y="76.4" class="st3" width="2.2" height="3.2"/>
	<rect x="440.9" y="76.4" class="st3" width="2.2" height="3.2"/>
	<rect x="112.9" y="22.2" class="st1" width="9.6" height="77.4"/>
	<g>
		<path class="st3" d="M523.8,61.4v-6.1c-3.2,0.3-5.8,2.9-6.1,6.1H523.8z"/>
		<path class="st3" d="M531.2,61.4c-0.3-3.2-2.9-5.8-6.1-6.1v6.1H531.2z"/>
		<path class="st1" d="M532.4,61.4V62c0,4.4-3.6,7.9-7.9,7.9c-4.4,0-8-3.6-8-8v-0.6h0c0.3-4.1,3.8-7.3,7.9-7.3
			S532.1,57.3,532.4,61.4L532.4,61.4L532.4,61.4z M517.7,61.4h6.1v-6.1C520.6,55.6,518,58.2,517.7,61.4z M525,55.3v6.1h6.1
			C530.9,58.2,528.3,55.6,525,55.3z"/>
	</g>
	<path class="st1" d="M478.3,39v0.6c0,4.4-3.6,8-8,8s-8-3.6-8-8V39h0c0.3-4.1,3.8-7.4,7.9-7.4S478,34.9,478.3,39L478.3,39L478.3,39z
		 M463.6,39h6.1v-6.1C466.5,33.2,463.9,35.8,463.6,39z M471,32.9V39h6.1C476.8,35.8,474.2,33.2,471,32.9z"/>
	<path class="st3" d="M479,61.4v-6.1c-3.2,0.3-5.8,2.9-6.1,6.1H479z"/>
	<path class="st1" d="M487.6,61.4V62c0,4.4-3.6,7.9-8,7.9c-4.4,0-8-3.6-8-8v-0.6h0c0.3-4.1,3.8-7.3,7.9-7.3S487.3,57.3,487.6,61.4
		L487.6,61.4L487.6,61.4z M472.9,61.4h6.1v-6.1C475.8,55.6,473.2,58.2,472.9,61.4z M480.2,55.3v6.1h6.1
		C486.1,58.2,483.5,55.6,480.2,55.3z"/>
	<path class="st1" d="M139.6,24c0,2.1-10.1,3.8-22.6,3.8S94.4,26,94.4,24s10.1-3.8,22.6-3.8S139.6,21.9,139.6,24z"/>
	<g>
		<line class="st4" x1="128.7" y1="26.4" x2="137.6" y2="52.4"/>
		
			<rect x="132.3" y="25.6" transform="matrix(0.9461 -0.3238 0.3238 0.9461 -5.5814 45.2076)" class="st1" width="1.5" height="27.5"/>
	</g>
	<g>
		<path class="st3" d="M140.9,53c0,1.7-1.4,3.1-3.1,3.1s-3.1-1.4-3.1-3.1s1.4-3.1,3.1-3.1S140.9,51.3,140.9,53z"/>
		<path class="st1" d="M141.4,53c0-2-1.6-3.6-3.6-3.6s-3.6,1.6-3.6,3.6s1.6,3.6,3.6,3.6S141.4,55,141.4,53z M140.4,53
			c0,1.5-1.2,2.6-2.6,2.6s-2.6-1.2-2.6-2.6s1.2-2.6,2.6-2.6S140.4,51.6,140.4,53z"/>
	</g>
	<g>
		<line class="st4" x1="105.7" y1="26.4" x2="96.8" y2="52.4"/>
		
			<rect x="87.5" y="38.6" transform="matrix(0.3241 -0.946 0.946 0.3241 31.2137 122.4203)" class="st1" width="27.5" height="1.5"/>
	</g>
	<g>
		<path class="st3" d="M93.5,53c0,1.7,1.4,3.1,3.1,3.1s3.1-1.4,3.1-3.1s-1.4-3.1-3.1-3.1S93.5,51.3,93.5,53z"/>
		<path class="st1" d="M100.3,53c0-2-1.6-3.6-3.6-3.6S93,51,93,53s1.6,3.6,3.6,3.6S100.3,55,100.3,53z M99.3,53
			c0,1.5-1.2,2.6-2.6,2.6S94,54.5,94,53s1.2-2.6,2.6-2.6S99.3,51.6,99.3,53z"/>
	</g>
	<g>
		<line class="st4" x1="113.1" y1="27.2" x2="105.8" y2="59.8"/>
		
			<rect x="92.7" y="42.7" transform="matrix(0.2188 -0.9758 0.9758 0.2188 43.0806 140.7257)" class="st1" width="33.5" height="1.5"/>
	</g>
	<g>
		<path class="st3" d="M102.4,60.5c0,1.7,1.4,3.1,3.1,3.1s3.1-1.4,3.1-3.1s-1.4-3.1-3.1-3.1S102.4,58.7,102.4,60.5z"/>
		<path class="st1" d="M109.2,60.5c0-2-1.6-3.6-3.6-3.6s-3.6,1.6-3.6,3.6s1.6,3.6,3.6,3.6S109.2,62.5,109.2,60.5z M108.2,60.5
			c0,1.5-1.2,2.6-2.6,2.6s-2.6-1.2-2.6-2.6s1.2-2.6,2.6-2.6S108.2,59,108.2,60.5z"/>
	</g>
	<g>
		<line class="st4" x1="122.1" y1="27.2" x2="129.5" y2="59.8"/>
		<rect x="125" y="26.8" transform="matrix(0.9757 -0.219 0.219 0.9757 -6.4712 28.6051)" class="st1" width="1.5" height="33.5"/>
	</g>
	<g>
		<path class="st3" d="M132.8,60.5c0,1.7-1.4,3.1-3.1,3.1s-3.1-1.4-3.1-3.1s1.4-3.1,3.1-3.1S132.8,58.7,132.8,60.5z"/>
		<path class="st1" d="M133.3,60.5c0-2-1.6-3.6-3.6-3.6s-3.6,1.6-3.6,3.6s1.6,3.6,3.6,3.6S133.3,62.5,133.3,60.5z M132.3,60.5
			c0,1.5-1.2,2.6-2.6,2.6s-2.6-1.2-2.6-2.6s1.2-2.6,2.6-2.6S132.3,59,132.3,60.5z"/>
	</g>
</g>
</svg>
