<?xml version="1.0" encoding="UTF-8"?><svg id="_イヤー_2" xmlns="http://www.w3.org/2000/svg" width="676.67" height="676.67" viewBox="0 0 676.67 676.67"><defs><style>.cls-1{fill:#f6a1a1;}.cls-2{fill:#e8c1e1;}.cls-3{fill:#fde969;}.cls-4{fill:#cdde90;}</style></defs><g id="_イヤー_1-2"><g><g><path class="cls-2" d="M655.5,358.01c2.83,.17,5.56-.21,8.09-1.09,1.26-.44,2.48-1,3.62-1.68,1.11-.68,2.15-1.47,3.1-2.36,3.8-3.55,6.23-8.75,6.37-14.54h-41.02c-.14,5.08,2.04,9.72,5.67,13.29,.91,.89,1.9,1.71,2.98,2.45,1.04,.74,2.16,1.39,3.35,1.94,2.38,1.11,5.03,1.82,7.85,1.99Z"/><path class="cls-2" d="M576.5,548.68c-2.12-1.87-4.5-3.25-6.97-4.15-2.48-.92-4.98-1.29-7.54-1.34-5.09-.04-9.92,1.69-13.42,5.37l29,29c4-4.19,5.97-9.58,5.79-14.78-.06-2.58-.78-5.24-1.93-7.63-1.16-2.41-2.82-4.61-4.94-6.48Z"/><path class="cls-4" d="M653.42,382.23c-5.64-.77-10.91,.7-15.11,3.47-4.27,2.78-7.34,6.9-8.22,11.9-1.07,4.97,.08,9.93,2.93,14.15,.71,1.05,1.52,2.06,2.43,2.99,.9,.93,1.84,1.79,2.9,2.57,2.11,1.56,4.56,2.78,7.3,3.52,2.74,.73,5.49,.9,8.14,.54,1.32-.18,2.64-.49,3.87-.93,1.22-.44,2.4-1.01,3.51-1.7,4.42-2.74,7.91-7.35,9.12-13.02,1.03-5.71-.31-11.3-3.33-15.53-3.07-4.26-7.96-7.2-13.54-7.96Z"/><path class="cls-3" d="M611.07,502.23c-2.43-1.46-5-2.37-7.6-2.82-2.62-.46-5.25-.44-7.75,0-2.49,.45-4.84,1.33-6.9,2.63-1.03,.65-1.99,1.4-2.87,2.27-.86,.87-1.75,1.77-2.47,2.82-1.48,2.07-2.41,4.38-2.86,6.8-.46,2.41-.36,4.98,.03,7.41,.86,4.91,3.55,9.78,8,13.29,4.45,3.5,9.87,4.91,15.13,4.21,2.67-.32,5.12-1.29,7.42-2.7,2.29-1.42,4.36-3.35,6.03-5.71,.82-1.19,1.57-2.39,2.07-3.7,.51-1.3,.89-2.63,1.13-3.96,.48-2.67,.42-5.37-.14-7.92-.57-2.56-1.64-4.97-3.19-7.11-1.56-2.15-3.61-4.03-6.03-5.49Z"/><path class="cls-1" d="M638.34,444.38c-2.67-.94-5.39-1.32-8.01-1.23-1.31,.05-2.6,.21-3.84,.48-1.26,.27-2.51,.63-3.69,1.1-4.74,1.87-8.52,5.3-10.43,10.01-2.1,4.63-1.9,9.76,.05,14.47,1.88,4.66,5.41,8.86,10.49,11.41,5.04,2.53,10.7,2.87,15.67,1.1,4.88-1.79,9.15-5.64,11.53-10.93,2.19-5.37,1.95-11.14-.15-15.9-.53-1.19-1.17-2.32-1.94-3.39-.79-1.07-1.68-2.06-2.67-2.96-1.98-1.8-4.35-3.22-7.02-4.16Z"/></g><g><path class="cls-2" d="M548.68,576.5c1.87,2.12,4.08,3.78,6.48,4.94,2.39,1.14,5.05,1.87,7.63,1.93,5.2,.17,10.59-1.79,14.78-5.79l-29-29c-3.68,3.5-5.41,8.33-5.37,13.42,.05,2.57,.42,5.06,1.34,7.54,.9,2.47,2.27,4.85,4.15,6.97Z"/><path class="cls-2" d="M358.01,655.5c-.17-2.83-.89-5.48-1.99-7.85-.55-1.19-1.21-2.3-1.94-3.35-.74-1.07-1.56-2.07-2.45-2.98-3.57-3.62-8.21-5.81-13.29-5.67v41.02c5.79-.14,10.99-2.57,14.54-6.37,.89-.95,1.68-1.99,2.36-3.1,.68-1.14,1.24-2.35,1.68-3.62,.88-2.53,1.27-5.26,1.09-8.09Z"/><path class="cls-4" d="M530.11,592.19c-1.71-2.26-3.77-4.07-6-5.43-2.25-1.38-4.71-2.36-7.19-2.87-2.48-.51-4.99-.57-7.39-.14-2.41,.42-4.66,1.42-6.84,2.74-4.3,2.72-6.89,7.21-7.9,12.14-1.03,4.87-.35,10.39,2.48,15.3,2.83,4.91,7.33,8.23,12.49,9.54,5.11,1.27,10.73,.31,15.62-2.81,2.47-1.52,4.35-3.66,5.81-5.94,1.44-2.3,2.39-4.82,2.82-7.4,.42-2.59,.33-5.21-.32-7.79-.67-2.6-1.86-5.09-3.57-7.35Z"/><path class="cls-3" d="M415.29,647.08c-1.37-5.49-4.73-9.98-8.86-12.84-2.07-1.43-4.35-2.44-6.72-2.96-2.37-.52-4.88-.74-7.38-.27-2.5,.45-4.79,1.44-6.81,2.86-.51,.35-.99,.74-1.46,1.14-.48,.38-.93,.78-1.37,1.21-.88,.85-1.68,1.8-2.4,2.83-2.86,4.1-4.41,9.47-3.74,15.09,.67,5.62,3.5,10.43,7.71,13.64,1.05,.8,2.19,1.5,3.39,2.09,.6,.29,1.22,.56,1.85,.8,.63,.21,1.27,.39,1.93,.54,2.62,.59,5.44,.67,8.29,.16,2.85-.53,5.47-1.51,7.7-3.08,2.22-1.57,4.09-3.54,5.49-5.77,2.81-4.46,3.76-9.94,2.39-15.43Z"/><path class="cls-1" d="M475.5,625.48c-2.45-5.1-6.64-8.84-11.28-10.81-4.66-2.01-9.69-2.07-14.46-.31-4.74,1.82-8.14,5.8-10.17,10.29-1.98,4.59-2.42,10.15-.63,15.52s5.52,9.52,10.3,11.82c4.8,2.4,10.46,2.49,15.87,.39,5.44-2.03,9.27-6.46,11.13-11.33,1.86-4.92,1.69-10.47-.76-15.57Z"/></g><g><path class="cls-2" d="M318.66,655.5c-.17,2.83,.21,5.56,1.09,8.09,.44,1.26,1,2.48,1.68,3.62,.68,1.11,1.47,2.15,2.36,3.1,3.55,3.8,8.75,6.23,14.54,6.37v-41.02c-5.08-.14-9.72,2.04-13.29,5.67-.89,.91-1.71,1.9-2.45,2.98-.74,1.04-1.39,2.16-1.94,3.35-1.11,2.38-1.82,5.03-1.99,7.85Z"/><path class="cls-2" d="M127.99,576.5c1.87-2.12,3.25-4.5,4.15-6.97,.92-2.48,1.29-4.98,1.34-7.54,.04-5.09-1.69-9.92-5.37-13.42l-29,29c4.19,4,9.58,5.97,14.78,5.79,2.58-.06,5.24-.78,7.63-1.93,2.41-1.16,4.61-2.82,6.48-4.94Z"/><path class="cls-4" d="M294.44,653.42c.77-5.64-.7-10.91-3.47-15.11-2.78-4.27-6.9-7.34-11.9-8.22-4.97-1.07-9.93,.08-14.15,2.93-1.05,.71-2.06,1.52-2.99,2.43-.93,.9-1.79,1.84-2.57,2.9-1.56,2.11-2.78,4.56-3.52,7.3-.73,2.74-.9,5.49-.54,8.14,.18,1.32,.49,2.64,.93,3.87,.44,1.22,1.01,2.4,1.7,3.51,2.74,4.42,7.35,7.91,13.02,9.12,5.71,1.03,11.3-.31,15.53-3.33,4.26-3.07,7.2-7.96,7.96-13.54Z"/><path class="cls-3" d="M174.44,611.07c1.46-2.43,2.37-5,2.82-7.6,.46-2.62,.44-5.26,0-7.75-.45-2.49-1.33-4.84-2.63-6.9-.65-1.03-1.4-1.99-2.27-2.87-.87-.86-1.77-1.75-2.82-2.47-2.07-1.48-4.38-2.41-6.8-2.86-2.41-.46-4.98-.36-7.41,.03-4.91,.86-9.78,3.55-13.29,8-3.5,4.45-4.91,9.87-4.21,15.13,.32,2.67,1.29,5.12,2.7,7.42,1.42,2.29,3.35,4.36,5.71,6.03,1.19,.82,2.39,1.57,3.7,2.07,1.3,.51,2.63,.89,3.96,1.13,2.67,.48,5.37,.42,7.92-.14,2.56-.57,4.97-1.64,7.11-3.19,2.15-1.56,4.03-3.61,5.49-6.03Z"/><path class="cls-1" d="M232.29,638.34c.94-2.67,1.32-5.39,1.23-8.01-.05-1.31-.21-2.6-.48-3.84-.27-1.26-.63-2.51-1.1-3.69-1.87-4.74-5.3-8.52-10.01-10.43-4.63-2.1-9.76-1.9-14.47,.05-4.66,1.88-8.86,5.41-11.41,10.49-2.53,5.04-2.87,10.7-1.1,15.67,1.79,4.88,5.64,9.15,10.93,11.53,5.37,2.19,11.14,1.95,15.9-.15,1.19-.53,2.32-1.17,3.39-1.94,1.07-.79,2.06-1.68,2.96-2.67,1.8-1.98,3.22-4.35,4.16-7.02Z"/></g><g><path class="cls-2" d="M100.17,548.68c-2.12,1.87-3.78,4.08-4.94,6.48-1.14,2.39-1.87,5.05-1.93,7.63-.17,5.2,1.79,10.59,5.79,14.78l29-29c-3.5-3.68-8.33-5.41-13.42-5.37-2.57,.05-5.06,.42-7.54,1.34-2.47,.9-4.85,2.27-6.97,4.15Z"/><path class="cls-2" d="M21.17,358.01c2.83-.17,5.48-.89,7.85-1.99,1.19-.55,2.3-1.21,3.35-1.94,1.07-.74,2.07-1.56,2.98-2.45,3.62-3.57,5.81-8.21,5.67-13.29H0c.14,5.79,2.57,10.99,6.37,14.54,.95,.89,1.99,1.68,3.1,2.36,1.14,.68,2.35,1.24,3.62,1.68,2.53,.88,5.26,1.27,8.09,1.09Z"/><path class="cls-4" d="M84.48,530.11c2.26-1.71,4.07-3.77,5.43-6,1.38-2.25,2.36-4.71,2.87-7.19,.51-2.48,.57-4.99,.14-7.39-.42-2.41-1.42-4.66-2.74-6.84-2.72-4.3-7.21-6.89-12.14-7.9-4.87-1.03-10.39-.35-15.3,2.48-4.91,2.83-8.23,7.33-9.54,12.49-1.27,5.11-.31,10.73,2.81,15.62,1.52,2.47,3.66,4.35,5.94,5.81,2.3,1.44,4.82,2.39,7.4,2.82,2.59,.42,5.21,.33,7.79-.32,2.6-.67,5.09-1.86,7.35-3.57Z"/><path class="cls-3" d="M29.59,415.29c5.49-1.37,9.98-4.73,12.84-8.86,1.43-2.07,2.44-4.35,2.96-6.72,.52-2.37,.74-4.88,.27-7.38-.45-2.5-1.44-4.79-2.86-6.81-.35-.51-.74-.99-1.14-1.46-.38-.48-.78-.93-1.21-1.37-.85-.88-1.8-1.68-2.83-2.4-4.1-2.86-9.47-4.41-15.09-3.74-5.62,.67-10.43,3.5-13.64,7.71-.8,1.05-1.5,2.19-2.09,3.39-.29,.6-.56,1.22-.8,1.85-.21,.63-.39,1.27-.54,1.93-.59,2.62-.67,5.44-.16,8.29,.53,2.85,1.51,5.47,3.08,7.7,1.57,2.22,3.54,4.09,5.77,5.49,4.46,2.81,9.94,3.76,15.43,2.39Z"/><path class="cls-1" d="M51.19,475.5c5.1-2.45,8.84-6.64,10.81-11.28,2.01-4.66,2.07-9.69,.31-14.46-1.82-4.74-5.8-8.14-10.29-10.17-4.59-1.98-10.15-2.42-15.52-.63-5.37,1.78-9.52,5.52-11.82,10.3-2.4,4.8-2.49,10.46-.39,15.87,2.03,5.44,6.46,9.27,11.33,11.13,4.92,1.86,10.47,1.69,15.57-.76Z"/></g><g><path class="cls-2" d="M21.17,318.66c-2.83-.17-5.56,.21-8.09,1.09-1.26,.44-2.48,1-3.62,1.68-1.11,.68-2.15,1.47-3.1,2.36-3.8,3.55-6.23,8.75-6.37,14.54H41.02c.14-5.08-2.04-9.72-5.67-13.29-.91-.89-1.9-1.71-2.98-2.45-1.04-.74-2.16-1.39-3.35-1.94-2.38-1.11-5.03-1.82-7.85-1.99Z"/><path class="cls-2" d="M100.17,127.99c2.12,1.87,4.5,3.25,6.97,4.15,2.48,.92,4.98,1.29,7.54,1.34,5.09,.04,9.92-1.69,13.42-5.37l-29-29c-4,4.19-5.97,9.58-5.79,14.78,.06,2.58,.78,5.24,1.93,7.63,1.16,2.41,2.82,4.61,4.94,6.48Z"/><path class="cls-4" d="M23.25,294.44c5.64,.77,10.91-.7,15.11-3.47,4.27-2.78,7.34-6.9,8.22-11.9,1.07-4.97-.08-9.93-2.93-14.15-.71-1.05-1.52-2.06-2.43-2.99-.9-.93-1.84-1.79-2.9-2.57-2.11-1.56-4.56-2.78-7.3-3.52-2.74-.73-5.49-.9-8.14-.54-1.32,.18-2.64,.49-3.87,.93-1.22,.44-2.4,1.01-3.51,1.7-4.42,2.74-7.91,7.35-9.12,13.02-1.03,5.71,.31,11.3,3.33,15.53,3.07,4.26,7.96,7.2,13.54,7.96Z"/><path class="cls-3" d="M65.6,174.44c2.43,1.46,5,2.37,7.6,2.82,2.62,.46,5.25,.44,7.75,0,2.49-.45,4.84-1.33,6.9-2.63,1.03-.65,1.99-1.4,2.87-2.26,.86-.87,1.75-1.77,2.47-2.82,1.48-2.07,2.41-4.38,2.86-6.8,.46-2.41,.36-4.98-.03-7.41-.86-4.91-3.55-9.78-8-13.29-4.45-3.5-9.87-4.91-15.13-4.21-2.67,.32-5.12,1.29-7.42,2.7-2.29,1.42-4.36,3.35-6.03,5.71-.82,1.19-1.57,2.39-2.07,3.7-.51,1.3-.89,2.63-1.13,3.96-.48,2.67-.42,5.37,.14,7.92,.57,2.56,1.64,4.97,3.19,7.11,1.56,2.15,3.61,4.03,6.03,5.49Z"/><path class="cls-1" d="M38.33,232.29c2.67,.94,5.39,1.32,8.01,1.23,1.31-.05,2.6-.21,3.84-.48,1.26-.27,2.51-.63,3.69-1.1,4.74-1.87,8.52-5.3,10.43-10.01,2.1-4.63,1.9-9.76-.05-14.47-1.88-4.66-5.41-8.86-10.49-11.41-5.04-2.53-10.7-2.87-15.67-1.1-4.88,1.79-9.15,5.64-11.53,10.93-2.19,5.37-1.95,11.14,.15,15.9,.53,1.19,1.17,2.32,1.94,3.39,.79,1.07,1.68,2.06,2.67,2.96,1.98,1.8,4.35,3.22,7.02,4.16Z"/></g><g><path class="cls-2" d="M127.99,100.17c-1.87-2.12-4.08-3.78-6.48-4.94-2.39-1.14-5.05-1.87-7.63-1.93-5.2-.17-10.59,1.79-14.78,5.79l29,29c3.68-3.5,5.41-8.33,5.37-13.42-.05-2.57-.42-5.06-1.34-7.54-.9-2.47-2.27-4.85-4.15-6.97Z"/><path class="cls-2" d="M318.66,21.17c.17,2.83,.89,5.48,1.99,7.85,.55,1.19,1.21,2.3,1.94,3.35,.74,1.07,1.56,2.07,2.45,2.98,3.57,3.62,8.21,5.81,13.29,5.67V0c-5.79,.14-10.99,2.57-14.54,6.37-.89,.95-1.68,1.99-2.36,3.1-.68,1.14-1.24,2.35-1.68,3.62-.88,2.53-1.27,5.26-1.09,8.09Z"/><path class="cls-4" d="M146.56,84.48c1.71,2.26,3.77,4.07,6,5.43,2.25,1.38,4.71,2.36,7.19,2.87,2.48,.51,4.99,.57,7.39,.14,2.41-.42,4.66-1.42,6.84-2.74,4.3-2.72,6.89-7.21,7.9-12.14,1.03-4.87,.35-10.39-2.48-15.3-2.83-4.91-7.33-8.23-12.49-9.54-5.11-1.27-10.73-.31-15.62,2.81-2.47,1.52-4.35,3.66-5.81,5.94-1.44,2.3-2.39,4.82-2.82,7.4-.42,2.59-.33,5.21,.32,7.79,.67,2.6,1.86,5.09,3.57,7.35Z"/><path class="cls-3" d="M261.38,29.59c1.37,5.49,4.73,9.98,8.86,12.84,2.07,1.43,4.35,2.44,6.72,2.96,2.37,.52,4.88,.74,7.38,.27,2.5-.45,4.79-1.44,6.81-2.86,.51-.35,.99-.74,1.46-1.14,.48-.38,.93-.78,1.37-1.21,.88-.85,1.68-1.8,2.4-2.83,2.86-4.1,4.41-9.47,3.74-15.09-.67-5.62-3.5-10.43-7.71-13.64-1.05-.8-2.19-1.5-3.39-2.09-.6-.29-1.22-.56-1.85-.8-.63-.21-1.27-.39-1.93-.54-2.62-.59-5.44-.67-8.29-.16-2.85,.53-5.47,1.51-7.7,3.08-2.22,1.57-4.09,3.54-5.49,5.77-2.81,4.46-3.76,9.94-2.39,15.43Z"/><path class="cls-1" d="M201.17,51.19c2.45,5.1,6.64,8.84,11.28,10.81,4.66,2.01,9.69,2.07,14.46,.31,4.74-1.82,8.14-5.8,10.17-10.29,1.98-4.59,2.42-10.15,.63-15.52-1.78-5.37-5.52-9.52-10.3-11.82-4.8-2.4-10.46-2.49-15.87-.39-5.44,2.03-9.27,6.46-11.13,11.33-1.86,4.92-1.69,10.47,.76,15.57Z"/></g><g><path class="cls-2" d="M358.01,21.17c.17-2.83-.21-5.56-1.09-8.09-.44-1.26-1-2.48-1.68-3.62-.68-1.11-1.47-2.15-2.36-3.1-3.55-3.8-8.75-6.23-14.54-6.37V41.02c5.08,.14,9.72-2.04,13.29-5.67,.89-.91,1.71-1.9,2.45-2.98,.74-1.04,1.39-2.16,1.94-3.35,1.11-2.38,1.82-5.03,1.99-7.85Z"/><path class="cls-2" d="M548.68,100.17c-1.87,2.12-3.25,4.5-4.15,6.97-.92,2.48-1.29,4.98-1.34,7.54-.04,5.09,1.69,9.92,5.37,13.42l29-29c-4.19-4-9.58-5.97-14.78-5.79-2.58,.06-5.24,.78-7.63,1.93-2.41,1.16-4.61,2.82-6.48,4.94Z"/><path class="cls-4" d="M382.23,23.25c-.77,5.64,.7,10.91,3.47,15.11,2.78,4.27,6.9,7.34,11.9,8.22,4.97,1.07,9.93-.08,14.15-2.93,1.05-.71,2.06-1.52,2.99-2.43,.93-.9,1.79-1.84,2.57-2.9,1.56-2.11,2.78-4.56,3.52-7.3,.73-2.74,.9-5.49,.54-8.14-.18-1.32-.49-2.64-.93-3.87-.44-1.22-1.01-2.4-1.7-3.51-2.74-4.42-7.35-7.91-13.02-9.12-5.71-1.03-11.3,.31-15.53,3.33-4.26,3.07-7.2,7.96-7.96,13.54Z"/><path class="cls-3" d="M502.23,65.6c-1.46,2.43-2.37,5-2.82,7.6-.46,2.62-.44,5.25,0,7.75,.45,2.49,1.33,4.84,2.63,6.9,.65,1.03,1.4,1.99,2.27,2.87,.87,.86,1.77,1.75,2.82,2.47,2.07,1.48,4.38,2.41,6.8,2.86,2.41,.46,4.98,.36,7.41-.03,4.91-.86,9.78-3.55,13.29-8s4.91-9.87,4.21-15.13c-.32-2.67-1.29-5.12-2.7-7.42-1.42-2.29-3.35-4.36-5.71-6.03-1.19-.82-2.39-1.57-3.7-2.07-1.3-.51-2.63-.89-3.96-1.13-2.67-.48-5.37-.42-7.92,.14-2.56,.57-4.97,1.64-7.11,3.19-2.15,1.56-4.03,3.61-5.49,6.03Z"/><path class="cls-1" d="M444.38,38.33c-.94,2.67-1.32,5.39-1.23,8.01,.05,1.31,.21,2.6,.48,3.84,.27,1.26,.63,2.51,1.1,3.69,1.87,4.74,5.3,8.52,10.01,10.43,4.63,2.1,9.76,1.9,14.47-.05,4.66-1.88,8.86-5.41,11.41-10.49,2.53-5.04,2.87-10.7,1.1-15.67-1.79-4.88-5.64-9.15-10.93-11.53-5.37-2.19-11.14-1.95-15.9,.15-1.19,.53-2.32,1.17-3.39,1.94-1.07,.79-2.06,1.68-2.96,2.67-1.8,1.98-3.22,4.35-4.16,7.02Z"/></g><g><path class="cls-2" d="M576.5,127.99c2.12-1.87,3.78-4.08,4.94-6.48,1.14-2.39,1.87-5.05,1.93-7.63,.17-5.2-1.79-10.59-5.79-14.78l-29,29c3.5,3.68,8.33,5.41,13.42,5.37,2.57-.05,5.06-.42,7.54-1.34,2.47-.9,4.85-2.27,6.97-4.15Z"/><path class="cls-2" d="M655.5,318.66c-2.83,.17-5.48,.89-7.85,1.99-1.19,.55-2.3,1.21-3.35,1.94-1.07,.74-2.07,1.56-2.98,2.45-3.62,3.57-5.81,8.21-5.67,13.29h41.02c-.14-5.79-2.57-10.99-6.37-14.54-.95-.89-1.99-1.68-3.1-2.36-1.14-.68-2.35-1.24-3.62-1.68-2.53-.88-5.26-1.27-8.09-1.09Z"/><path class="cls-4" d="M592.19,146.56c-2.26,1.71-4.07,3.77-5.43,6-1.38,2.25-2.36,4.71-2.87,7.19-.51,2.48-.57,4.99-.14,7.39,.42,2.41,1.42,4.66,2.74,6.84,2.72,4.3,7.21,6.89,12.14,7.9,4.87,1.03,10.39,.35,15.3-2.48,4.91-2.83,8.23-7.33,9.54-12.49,1.27-5.11,.31-10.73-2.81-15.62-1.52-2.47-3.66-4.35-5.94-5.81-2.3-1.44-4.82-2.39-7.4-2.82-2.59-.42-5.21-.33-7.79,.32-2.6,.67-5.09,1.86-7.35,3.57Z"/><path class="cls-3" d="M647.08,261.38c-5.49,1.37-9.98,4.73-12.84,8.86-1.43,2.07-2.44,4.35-2.96,6.72-.52,2.37-.74,4.88-.27,7.38,.45,2.5,1.44,4.79,2.86,6.81,.35,.51,.74,.99,1.14,1.46,.38,.48,.78,.93,1.21,1.37,.85,.88,1.8,1.68,2.83,2.4,4.1,2.86,9.47,4.41,15.09,3.74,5.62-.67,10.43-3.5,13.64-7.71,.8-1.05,1.5-2.19,2.09-3.39,.29-.6,.56-1.22,.8-1.85,.21-.63,.39-1.27,.54-1.93,.59-2.62,.67-5.44,.16-8.29-.53-2.85-1.51-5.47-3.08-7.7-1.57-2.22-3.54-4.09-5.77-5.49-4.46-2.81-9.94-3.76-15.43-2.39Z"/><path class="cls-1" d="M625.49,201.17c-5.1,2.45-8.84,6.64-10.81,11.28-2.01,4.66-2.07,9.69-.31,14.46,1.82,4.74,5.8,8.14,10.29,10.17,4.58,1.98,10.15,2.42,15.52,.63,5.37-1.78,9.52-5.52,11.82-10.3,2.4-4.8,2.49-10.46,.39-15.87-2.03-5.44-6.46-9.27-11.33-11.13-4.92-1.86-10.47-1.69-15.57,.76Z"/></g></g></g></svg>